<svg width="1440" height="405" viewBox="0 0 1440 405" fill="none" xmlns="http://www.w3.org/2000/svg">
<g clip-path="url(#clip0_376_15964)">
<g opacity="0.4">
<path d="M1656.36 162.62C1547.8 179.267 1452.8 105.701 1344.3 122.783C1320.18 126.581 1296.64 134.835 1272.29 134.923C1230.8 135.127 1200.56 112.431 1171.82 93.1521C1143.21 73.8544 1103.45 55.6879 1063.64 66.5917C1030.36 75.6648 1011.99 101.29 999.739 124.794C986.453 150.242 975.813 176.255 961.906 201.623C952.369 219.172 940.666 236.883 921.619 250.491C902.572 264.098 874.499 272.976 849.723 268.764C817.818 263.357 802.251 239.509 793.525 217.348C777.558 176.268 772.012 131.765 742.631 95.2044C713.249 58.6439 648.532 32.0153 589.772 50.1819C544.838 64.1212 513.099 100.766 465.48 104.609C435.164 106.975 408.283 94.8041 387.206 80.8277C366.144 66.9384 347.366 50.5496 320.901 41.7901C281.712 28.7935 233.707 34.8362 189.668 31.2507C145.628 27.6652 98.3139 5.60663 107.272 -25.6687" stroke="url(#paint0_linear_376_15964)" stroke-miterlimit="10"/>
<path opacity="0.9762" d="M1656.5 158.854C1604.94 167.061 1555.94 155.164 1507.46 141.936C1475.02 133.137 1442.72 123.691 1409.67 119.533C1388.69 116.954 1367.42 116.469 1345.63 119.632C1321.57 123.063 1298.19 130.758 1273.95 130.74C1256.53 130.719 1240.94 126.844 1226.61 120.899C1207.07 112.831 1189.78 101.202 1172.89 90.6659C1151.42 77.2864 1124.22 64.631 1095.67 63.51C1085.51 63.1491 1075.19 64.1493 1064.95 67.1876C1032.23 76.7079 1013.69 102.004 1000.58 124.75C986.54 149.248 975.416 173.732 960.933 197.765C954.373 208.693 946.967 219.666 937.217 229.67C932.184 234.831 926.502 239.737 920.025 244.234C901.028 257.388 873.43 266.19 849.135 262.706C823.952 259.004 809.042 243.967 799.41 227.654C797.102 223.828 795.243 219.752 793.411 215.851C786.827 201.108 781.661 184.537 776.083 169.993C767.165 146.614 757.969 123.011 739.668 101.911C731.036 91.9486 719.58 82.6089 706.295 74.8051C673.254 55.2241 630.682 44.7213 590.808 55.9918C586.137 57.2622 581.639 58.8618 577.169 60.6354C544.178 73.8532 517.218 97.5325 481.819 103.195C478.492 103.719 475.018 104.088 471.517 104.282C442.412 105.834 416.468 93.4262 395.328 79.8165C382.463 71.5899 370.033 63.0275 356.566 55.6091C347.234 50.4814 337.244 45.814 326.005 42.502C285.605 30.3201 236.596 36.1645 191.578 32.5547C146.56 28.945 98.615 7.52057 104.589 -23.374" stroke="url(#paint1_linear_376_15964)" stroke-miterlimit="10"/>
<path opacity="0.9524" d="M1656.77 155.156C1605.37 163.606 1556.36 152.423 1507.92 139.456C1475.51 130.831 1443.45 121.347 1410.51 117.084C1389.74 114.381 1368.57 113.703 1346.84 116.499C1322.97 119.545 1299.62 126.699 1275.48 126.576C1258.17 126.449 1242.6 122.661 1228.19 116.995C1208.59 109.295 1190.88 98.175 1173.86 88.2853C1152.02 75.6765 1124.72 63.9285 1096.41 63.5717C1086.41 63.4531 1076.25 64.6955 1066.03 67.8209C1033.75 77.8069 1015.04 102.861 1001.21 124.83C986.389 148.291 974.676 171.353 959.723 193.944C952.934 204.195 945.327 214.664 935.376 224.165C930.302 229.065 924.592 233.797 918.088 238.12C899.023 250.839 872.033 259.635 848.19 256.703C823.487 253.728 808.782 239.997 799.132 225.113C796.879 221.634 794.955 217.925 793.045 214.303C786.311 200.922 780.432 184.463 774.387 171.597C764.477 150.425 755.038 128.375 736.308 108.413C727.401 99.0287 715.881 90.0557 702.742 82.4072C669.637 63.1928 629.388 51.9679 591.552 61.491C587.105 62.6369 582.804 63.9382 578.663 65.4817C547.235 77.027 521.267 98.4996 487.262 102.962C484.04 103.38 480.791 103.625 477.395 103.713C449.501 104.45 424.508 91.8929 403.409 78.5442C390.16 70.1998 376.953 62.1163 362.827 55.1581C353.047 50.2793 342.623 45.9476 331.161 42.76C289.417 31.3246 239.534 37.039 193.538 33.405C147.542 29.7709 98.9532 8.8937 101.956 -21.5331" stroke="url(#paint2_linear_376_15964)" stroke-miterlimit="10"/>
<path opacity="0.9286" d="M1657.03 151.371C1605.91 160.044 1556.77 149.595 1508.5 136.958C1476.12 128.506 1444.19 119.091 1411.44 114.53C1390.79 111.72 1369.7 110.85 1348.16 113.261C1324.47 115.922 1301.15 122.534 1277.23 122.2C1260.02 121.967 1244.48 118.353 1229.98 112.881C1210.18 105.478 1192.32 94.9179 1175.02 85.6063C1152.7 73.787 1125.43 63.0145 1097.48 63.4033C1087.52 63.5456 1077.52 65.0303 1067.56 68.2923C1035.83 78.6384 1016.96 103.45 1002.29 124.749C986.833 147.241 974.517 168.793 958.987 190.048C951.865 199.728 944.03 209.52 934.129 218.567C928.909 223.311 923.158 227.783 916.745 231.913C897.73 244.178 871.216 252.899 847.852 250.694C823.616 248.359 809.13 236.019 799.356 222.67C797.039 219.558 795.052 216.216 793.197 212.942C786.178 200.853 779.837 184.557 773.221 173.474C762.228 154.701 752.652 134.1 733.61 115.257C724.535 106.345 712.964 97.8252 699.852 90.3506C666.684 71.503 628.769 59.6428 592.84 67.3503C588.603 68.2848 584.512 69.3746 580.582 70.7067C550.717 80.5795 525.622 99.8643 493.236 103.002C490.238 103.296 487.093 103.434 483.802 103.418C457.107 103.253 432.945 90.5644 411.9 77.5637C398.282 69.1884 384.298 61.5839 369.632 55.0673C359.418 50.5242 348.665 46.4227 336.755 43.4839C293.667 32.795 242.911 38.3794 195.937 34.721C149.096 31.1309 99.7433 10.8197 99.6431 -19.2076" stroke="url(#paint3_linear_376_15964)" stroke-miterlimit="10"/>
<path opacity="0.9048" d="M1657.18 147.692C1606.34 156.589 1557.07 146.873 1508.84 134.497C1476.49 126.219 1444.8 116.767 1412.16 112.1C1391.6 109.184 1370.73 108.103 1349.39 110.215C1325.76 112.509 1302.58 118.476 1278.78 118.123C1261.69 117.871 1246.14 114.257 1231.58 109.151C1211.72 102.115 1193.69 92.0275 1176.01 83.3997C1153.31 72.2642 1125.97 62.573 1098.25 63.639C1088.45 64.0236 1078.6 65.6636 1068.78 69.0808C1037.6 79.8741 1018.58 104.444 1003.16 124.879C986.947 146.42 974.028 166.463 957.923 186.382C950.572 195.385 942.522 204.586 932.434 213.217C927.173 217.701 921.395 221.998 914.954 225.954C895.976 237.679 869.951 246.412 847.067 244.934C823.429 243.307 809.135 232.185 799.237 220.371C796.975 217.607 794.924 214.632 792.991 211.638C785.689 200.841 778.781 184.812 771.804 175.302C759.727 158.928 750.013 139.775 730.542 122.069C721.311 113.717 709.676 105.564 696.592 98.2633C663.478 79.7636 627.767 67.2 593.876 73.1601C589.85 73.8832 586.088 74.7429 582.249 75.8823C553.947 84.0826 529.859 101.248 498.853 103.098C495.96 103.287 492.92 103.319 489.853 103.178C464.369 102.198 441.158 89.3605 420.155 76.6207C406.152 68.1276 391.405 61.089 376.067 54.9456C365.405 50.6513 354.218 46.8856 341.979 44.1769C297.679 34.3028 245.918 39.6889 197.966 36.0063C150.147 32.3919 100.15 12.6279 97.0785 -16.9317" stroke="url(#paint4_linear_376_15964)" stroke-miterlimit="10"/>
<path opacity="0.881" d="M1657.44 143.908C1606.75 153.047 1557.48 144.045 1509.42 131.998C1477.21 123.876 1445.52 114.424 1413.09 109.545C1392.65 106.524 1371.98 105.231 1350.7 106.977C1327.26 108.885 1304.12 114.311 1280.41 113.765C1263.43 113.408 1247.79 109.987 1233.25 105.055C1213.31 98.299 1194.89 88.8079 1177.07 80.8264C1154 70.4617 1126.57 61.7649 1099.08 63.5081C1089.32 64.1537 1079.63 66.0359 1069.96 69.6084C1039.22 80.8675 1020.14 105.089 1003.89 124.854C987.02 145.339 973.512 163.959 956.818 182.455C949.252 190.868 940.987 199.479 930.817 207.588C925.514 211.811 919.709 215.934 913.255 219.803C894.327 231.074 868.791 239.82 846.479 238.875C823.32 237.975 809.231 228.158 799.21 217.879C796.884 215.482 794.887 212.855 792.758 210.159C785.159 200.568 777.831 184.962 770.254 177.062C757.002 163.28 747.348 145.276 727.46 128.795C717.955 121.02 706.256 113.234 693.332 106.176C660.154 88.0429 626.765 74.7571 594.794 78.9886C591.097 79.4816 587.426 80.1486 583.797 81.0766C557.046 87.5174 533.844 102.582 504.456 103.108C501.668 103.19 498.853 103.099 495.891 102.852C471.604 100.97 449.225 88.0012 428.276 75.6094C413.904 67.0854 398.366 60.4388 382.37 54.7556C371.274 50.7972 359.757 47.2616 347.189 44.783C301.546 35.6554 248.898 40.8245 199.982 37.2045C151.184 33.5658 100.556 14.436 94.5008 -14.7428" stroke="url(#paint5_linear_376_15964)" stroke-miterlimit="10"/>
<path opacity="0.8571" d="M1657.71 140.21C1607.3 149.573 1557.9 141.305 1509.89 129.519C1477.72 121.657 1446.27 112.167 1413.93 107.096C1393.7 103.951 1373.01 102.484 1351.92 103.844C1328.65 105.367 1305.55 110.253 1281.95 109.601C1265.07 109.138 1249.44 105.804 1234.83 101.152C1214.82 94.7622 1196.11 85.7621 1178.02 78.3588C1154.59 68.7648 1127.07 61.0624 1099.81 63.4828C1090.21 64.3707 1080.68 66.4951 1071.14 70.1359C1040.96 81.8421 1021.72 105.821 1004.62 124.828C987.107 144.345 973.01 161.541 955.726 178.616C947.813 186.369 939.453 194.372 929.081 201.978C923.738 205.939 917.905 209.889 911.543 213.565C892.665 224.382 867.723 233.034 845.771 232.836C823.093 232.662 809.315 224.044 799.051 215.319C796.661 213.288 794.719 211.009 792.525 208.68C784.629 200.295 778.841 183.644 768.705 178.821C758.442 165.46 744.683 150.778 724.26 135.539C714.586 128.237 702.836 120.905 689.94 114.02C656.816 96.2352 625.63 82.2459 595.58 84.7487C592.092 85.0303 588.632 85.486 585.319 86.0969C560.13 90.8651 537.921 103.723 510.046 103.03C507.482 102.988 504.772 102.791 501.915 102.438C478.84 99.7418 457.411 86.6232 436.503 74.4924C421.747 65.8505 405.327 59.7885 388.792 54.5468C377.261 50.9243 365.296 47.6375 352.385 45.3021C305.398 36.9209 251.878 41.96 201.997 38.4027C152.221 34.7397 100.949 16.1571 91.9227 -12.5539" stroke="url(#paint6_linear_376_15964)" stroke-miterlimit="10"/>
<path opacity="0.8333" d="M1657.96 136.426C1607.84 146.012 1558.32 138.564 1510.47 127.02C1478.33 119.333 1446.99 109.824 1414.86 104.542C1394.73 101.204 1374.27 99.6119 1353.25 100.693C1330.05 101.849 1307.22 106.156 1283.72 105.399C1266.95 104.831 1251.35 101.67 1236.64 97.2106C1216.56 91.1009 1197.58 82.679 1179.22 75.9407C1155.43 67.1176 1127.81 60.3224 1100.8 63.594C1091.24 64.7429 1081.87 67.1096 1072.6 70.887C1042.97 83.0403 1023.56 106.69 1005.62 125.026C987.46 143.487 972.653 159.28 954.899 174.912C946.772 182.076 938.064 189.42 927.624 196.591C922.121 200.31 916.366 203.98 909.99 207.569C891.044 217.951 866.696 226.51 845.224 227.038C823.025 227.591 809.439 220.191 799.17 212.982C796.835 211.3 794.815 209.3 792.558 207.337C784.245 200.177 778.338 183.545 767.407 180.63C756.732 169.295 742.164 156.434 721.43 142.315C711.6 135.571 699.668 128.624 686.918 121.895C653.73 104.477 624.866 89.7656 596.854 90.521C593.577 90.5912 590.327 90.8354 587.224 91.2349C563.599 94.3306 542.262 105 515.901 103.089C513.442 102.941 510.837 102.638 508.204 102.161C486.34 98.6499 465.743 85.4004 444.863 73.4436C429.736 64.7708 412.539 59.1878 395.332 54.3193C383.354 50.9456 370.955 47.9947 357.714 45.8893C309.516 38.3229 254.99 43.1637 204.132 39.5821C153.391 35.9818 101.474 17.9465 89.3447 -10.3651" stroke="url(#paint7_linear_376_15964)" stroke-miterlimit="10"/>
<path opacity="0.8095" d="M1658.11 132.747C1608.25 142.469 1558.73 135.736 1510.93 124.54C1478.82 117.027 1447.73 107.568 1415.81 102.074C1395.79 98.6302 1375.41 96.8459 1354.58 97.5413C1331.56 98.3125 1308.77 102.079 1285.36 101.129C1268.69 100.455 1253.11 97.3815 1238.32 93.2015C1218.06 87.4772 1198.92 79.6146 1180.28 73.3674C1156.12 65.315 1128.41 59.5142 1101.63 63.4631C1092.23 64.8542 1083.01 67.3762 1073.88 71.3088C1044.68 83.841 1025.24 107.317 1006.44 124.809C987.638 142.3 972.229 156.583 953.78 170.899C945.425 177.385 936.516 184.226 925.993 190.875C920.463 194.42 914.667 197.829 908.263 201.244C889.367 211.173 865.495 219.656 844.489 220.824C822.875 221.998 809.362 215.835 798.997 210.335C796.598 209.019 794.633 207.367 792.192 205.79C783.464 199.854 777.571 183.309 765.724 182.322C754.652 173.1 739.247 161.886 718.202 148.885C708.098 142.72 696.221 136.121 683.498 129.566C650.232 112.427 623.717 97.1675 597.611 96.1072C594.545 95.9661 591.624 95.9801 588.612 96.1869C566.551 97.6101 546.088 106.092 521.344 102.856C518.976 102.515 516.609 102.175 514.082 101.592C493.415 97.1794 473.65 83.7989 452.944 72.1713C437.328 63.4864 419.459 58.2766 401.594 53.8684C389.181 50.8305 376.453 48.1096 362.884 46.2344C313.341 39.4144 257.943 44.1253 206.106 40.5194C154.388 36.8948 101.826 19.4066 86.7392 -8.35014" stroke="url(#paint8_linear_376_15964)" stroke-miterlimit="10"/>
<path opacity="0.7857" d="M1658.37 128.962C1608.8 138.995 1559.15 132.995 1511.39 122.061C1479.3 114.721 1448.34 105.243 1416.63 99.5381C1396.71 95.9886 1376.55 93.9929 1355.79 94.4086C1332.95 94.7944 1310.2 98.0202 1286.9 96.9645C1270.22 96.2035 1254.78 93.2853 1239.9 89.298C1219.56 83.8534 1200.15 76.5689 1181.24 70.9868C1156.6 63.7239 1128.92 58.8987 1102.49 63.5061C1093.25 65.1395 1084.07 67.9225 1075.09 72.0103C1046.45 84.9896 1026.95 108.118 1007.19 124.957C987.871 141.461 971.74 154.253 952.702 167.146C944.132 173.042 934.994 179.205 924.285 185.438C918.713 188.722 912.771 191.976 906.459 195.198C887.613 204.673 864.23 213.169 843.69 214.977C822.556 216.878 809.115 211.952 798.864 207.949C796.401 207 794.358 205.628 791.973 204.398C782.801 199.513 776.816 183.161 764.293 184.062C752.809 176.867 736.714 167.455 715.12 155.61C704.861 150.005 692.933 143.859 680.105 137.41C646.776 120.638 622.582 104.656 598.515 101.849C595.659 101.496 592.948 101.299 590.147 101.294C569.649 101.045 550.178 107.32 526.828 102.884C524.685 102.419 522.422 101.973 520 101.284C500.545 96.0568 481.731 82.5266 460.946 71.1787C444.947 62.3759 426.314 57.732 407.91 53.7654C395.168 50.9575 381.887 48.5913 367.988 46.9462C317.102 40.8727 260.831 45.4535 208.016 41.8233C155.319 38.1744 102.113 21.2335 84.0556 -6.05554" stroke="url(#paint9_linear_376_15964)" stroke-miterlimit="10"/>
<path opacity="0.7619" d="M1658.63 125.177C1609.22 135.453 1559.55 130.168 1511.97 119.562C1479.91 112.397 1449.19 102.881 1417.58 97.0704C1397.89 93.3966 1377.69 91.2268 1357.24 91.2384C1334.47 91.2576 1311.87 93.9239 1288.78 92.6569C1272.2 91.7901 1256.66 88.9777 1241.82 85.2513C1221.42 80.1735 1201.71 73.38 1182.54 68.376C1157.54 61.9709 1129.75 57.966 1103.58 63.4246C1094.37 65.319 1085.47 68.3255 1076.63 72.4817C1048.54 85.908 1029 108.775 1008.28 124.876C988.315 140.41 971.462 151.711 951.967 163.25C943.05 168.487 933.698 174.061 923.038 179.84C917.426 182.863 911.456 185.942 905.116 188.991C886.321 198.012 863.413 206.433 843.353 208.968C822.699 211.596 809.318 207.819 799.076 205.42C796.548 204.837 794.126 204.149 792.097 202.863C781.288 200.732 776.538 182.937 763.101 185.766C751.205 180.596 734.286 172.919 712.396 162.28C701.967 157.147 689.87 151.474 677.202 145.267C643.809 128.861 621.937 112.157 599.79 107.621C597.144 107.057 594.644 106.648 592.171 106.414C573.236 104.492 554.639 108.579 532.907 102.818C530.869 102.248 528.698 101.609 526.514 100.883C508.27 94.8405 490.287 81.1793 469.663 70.0737C453.293 61.2401 433.87 56.9882 414.807 53.4817C401.631 51.0097 388.021 48.8735 373.674 47.4772C321.577 42.2185 264.3 46.6011 210.507 42.9466C156.951 39.2547 102.996 22.9667 81.9535 -3.94159" stroke="url(#paint10_linear_376_15964)" stroke-miterlimit="10"/>
<path opacity="0.7381" d="M1658.78 121.498C1609.77 131.979 1559.86 127.446 1512.43 117.082C1480.53 110.159 1449.81 100.644 1418.4 94.5346C1398.81 90.755 1378.83 88.3739 1358.44 88.0188C1335.85 87.6526 1313.29 89.7783 1290.3 88.4056C1273.83 87.4331 1258.31 84.7946 1243.39 81.261C1222.9 76.4628 1202.93 70.2474 1183.49 65.9085C1158.12 60.2741 1130.25 57.2636 1104.3 63.3994C1095.26 65.536 1086.38 68.7166 1077.82 73.0963C1050.17 86.9885 1030.59 109.595 1009.02 124.938C988.534 139.484 970.959 149.294 950.875 159.41C941.743 164.057 932.176 169.04 921.316 174.316C915.662 177.079 909.665 179.984 903.417 182.84C884.553 191.426 862.239 199.754 842.645 202.928C822.576 206.177 809.044 203.761 799.048 202.928C796.457 202.712 793.971 202.39 791.996 201.453C780.799 200.72 775.903 182.77 761.683 187.594C749.376 184.45 731.648 178.594 709.328 169.092C698.625 164.537 686.582 159.212 673.942 153.179C640.484 137.141 620.935 119.714 600.826 113.431C598.404 112.742 596.101 112.035 593.838 111.589C576.467 107.995 558.861 109.875 538.524 102.914C536.591 102.238 534.644 101.475 532.565 100.643C515.518 93.6993 498.381 79.9941 477.798 69.1495C460.939 60.3037 440.858 56.512 421.137 53.4658C407.526 51.3296 393.468 49.4422 378.898 48.1704C325.457 43.6581 267.307 47.9107 212.536 44.2319C158.016 40.6027 103.402 24.7749 79.2701 -1.64691" stroke="url(#paint11_linear_376_15964)" stroke-miterlimit="10"/>
<path opacity="0.7143" d="M1659.04 117.714C1610.19 128.436 1560.26 124.618 1512.9 114.603C1481.02 107.854 1450.54 98.3009 1419.22 91.9988C1399.73 88.1135 1379.84 85.5396 1359.65 84.8862C1337.24 84.1346 1314.72 85.7196 1291.84 84.2412C1275.47 83.163 1259.97 80.6115 1244.96 77.3575C1224.42 72.926 1204.15 67.2018 1184.45 63.5279C1158.6 58.683 1130.75 56.5612 1105.04 63.4612C1096.04 65.8588 1087.45 69.2629 1079.01 73.7109C1051.92 88.0502 1032.3 110.395 1009.74 124.912C988.74 138.471 970.325 146.809 949.665 155.589C940.304 159.559 930.523 163.952 919.462 168.725C913.648 171.245 907.742 173.957 901.467 176.639C882.64 184.685 860.933 193.006 841.701 196.926C822.111 200.901 808.427 199.847 798.651 200.405C795.877 200.575 793.564 200.582 791.394 199.943C779.689 200.627 774.884 182.484 759.75 189.235C747.149 188.099 728.48 183.996 705.862 175.7C695.004 171.704 682.779 166.765 670.284 160.887C636.882 145.196 619.535 127.067 601.346 119.054C599.253 118.136 597.174 117.304 594.989 116.579C579.181 111.312 562.463 111.091 543.73 102.719C542.021 101.918 540.179 101.049 538.205 100.112C522.37 92.3531 506.065 78.517 485.641 67.9146C468.399 58.951 447.435 55.744 427.161 53.0523C413.102 51.1649 398.729 49.5947 383.711 48.5716C329.045 44.7871 269.903 48.9284 214.272 45.2066C158.775 41.5531 103.53 26.3595 76.4134 0.318477" stroke="url(#paint12_linear_376_15964)" stroke-miterlimit="10"/>
<path opacity="0.6905" d="M1659.31 114.016C1610.73 124.962 1560.68 121.877 1513.48 112.104C1481.63 105.529 1451.26 95.9577 1420.17 89.5312C1400.79 85.5402 1381.11 82.7549 1360.98 81.7348C1338.64 80.6165 1316.27 81.6422 1293.48 79.971C1277.23 78.8741 1261.73 76.3227 1246.65 73.3484C1225.9 69.2153 1205.5 64.1374 1185.39 60.9733C1159.18 56.8992 1131.23 55.7717 1105.77 63.4359C1096.93 66.0758 1088.37 69.7408 1080.09 74.3441C1053.55 89.1305 1033.89 111.215 1010.37 124.993C988.855 137.651 969.704 144.411 948.468 151.855C938.774 155.253 928.764 158.969 917.753 163.288C911.898 165.547 905.952 167.999 899.662 170.594C880.886 178.186 859.669 186.519 841.021 191.06C821.911 195.762 807.459 194.472 798.638 198C796.001 199.04 793.423 198.911 791.293 198.533C779.2 200.615 774.262 182.404 758.333 191.063C745.321 191.953 725.961 189.652 702.781 182.426C691.648 179.008 679.478 174.416 667.01 168.713C633.544 153.389 618.52 134.537 602.25 124.796C600.368 123.666 598.499 122.623 596.524 121.686C582.293 114.833 566.434 112.338 549.214 102.747C547.61 101.84 545.874 100.866 544.137 99.8911C529.5 91.2305 514.04 77.3504 493.644 66.922C476.031 57.9275 454.277 55.1124 433.345 52.8809C418.852 51.3294 404.03 50.008 388.683 49.2151C332.687 46.264 272.659 50.1883 216.064 46.5292C159.588 42.8513 103.699 28.205 73.6114 2.63174" stroke="url(#paint13_linear_376_15964)" stroke-miterlimit="10"/>
<path opacity="0.6667" d="M1659.44 110.25C1611.15 121.42 1560.99 119.155 1513.82 109.643C1482 103.242 1451.89 93.7202 1420.87 87.0139C1401.71 82.8986 1382.12 79.9206 1362.06 78.5338C1339.9 77.0301 1317.67 77.4094 1295 75.7196C1278.86 74.517 1263.38 72.1395 1248.21 69.3579C1227.39 65.5045 1206.59 61.0234 1186.34 58.5057C1159.76 55.2023 1131.73 55.0691 1106.61 63.3919C1097.82 66.2927 1089.54 70.1814 1081.38 74.8529C1055.27 90.0181 1035.72 111.997 1011.33 124.93C989.298 136.601 969.425 141.869 947.6 147.891C937.677 150.612 927.453 153.737 916.255 157.64C910.359 159.638 904.266 161.935 898.068 164.337C879.342 171.475 858.6 179.733 840.418 184.914C821.893 190.238 807.962 192.253 798.597 195.421C795.708 196.411 793.373 197.046 791.179 197.035C778.564 200.448 773.732 182.131 756.888 192.717C743.478 195.72 723.295 195.153 699.804 189.046C688.502 186.1 676.162 181.981 663.855 176.52C630.325 161.562 617.622 141.988 603.392 130.5C601.719 129.159 600.06 127.904 598.296 126.756C585.629 118.231 570.762 113.529 555.055 102.719C553.556 101.706 552.044 100.607 550.412 99.527C536.986 90.0517 522.358 76.0406 502.122 65.8545C484.02 56.8479 461.607 54.493 440.017 52.7218C425.09 51.5061 409.94 50.4147 394.263 49.8519C336.923 47.6474 276.022 51.4416 218.449 47.7582C160.995 44.0561 104.475 30.044 71.2844 4.8702" stroke="url(#paint14_linear_376_15964)" stroke-miterlimit="10"/>
<path opacity="0.6429" d="M1659.71 106.553C1611.7 117.946 1561.41 116.415 1514.42 107.232C1482.62 101.004 1452.63 91.464 1421.84 84.6333C1402.78 80.4123 1383.29 77.2416 1363.53 75.5377C1341.44 73.6674 1319.37 73.4872 1296.79 71.6047C1280.75 70.2964 1265.29 68.0059 1250.04 65.504C1229.15 62.0173 1208.06 58.0273 1187.54 56.0876C1160.48 53.5738 1132.47 54.3292 1107.59 63.4162C1098.95 66.5593 1090.7 70.6219 1082.83 75.517C1057.28 91.1294 1037.8 112.828 1012.32 125.041C989.782 135.811 969.055 139.52 946.773 144.187C936.636 146.319 926.197 148.854 914.797 152.253C908.874 154.077 902.74 156.113 896.515 158.341C877.72 165.045 857.572 173.209 839.87 179.117C821.825 185.167 808.008 188.68 798.597 193.103C795.658 194.547 792.884 194.716 791.092 195.711C779.048 201.976 775.408 184.274 755.603 194.613C742.887 201.251 720.776 200.81 696.987 195.908C685.53 193.522 673.126 189.769 660.846 184.482C627.265 169.978 616.871 149.595 604.561 136.378C603.098 134.825 601.65 133.36 600.215 131.981C589.111 121.783 575.117 114.893 560.91 102.777C559.516 101.66 558.227 100.436 556.701 99.2501C544.591 88.8543 530.809 74.7992 510.495 64.8928C492.023 55.8553 468.833 53.9793 446.571 52.5814C431.196 51.6145 415.611 50.859 399.592 50.4393C341.041 49.0495 279.134 52.6455 220.583 48.9377C162.165 45.2983 104.986 31.7464 68.8249 7.04039" stroke="url(#paint15_linear_376_15964)" stroke-miterlimit="10"/>
<path opacity="0.619" d="M1659.97 102.768C1612.12 114.403 1561.81 113.587 1514.98 104.646C1483.23 98.6799 1453.47 89.102 1422.76 81.9917C1403.81 77.6649 1384.53 74.2829 1364.84 72.2123C1342.93 69.9566 1320.89 69.2358 1298.42 67.2476C1282.48 65.8336 1266.93 63.7358 1251.71 61.4078C1230.74 58.2008 1209.38 54.7889 1188.6 53.5143C1161.17 51.7713 1133.07 53.521 1108.42 63.2852C1099.95 66.6706 1091.86 70.9755 1084.11 75.9388C1059.12 91.9983 1039.61 113.523 1013.14 124.823C990.094 134.692 968.631 136.824 945.641 140.087C935.275 141.54 924.502 143.504 913.153 146.45C907.07 148.032 901.028 149.875 894.894 151.91C876.15 158.16 856.477 166.25 839.255 172.884C821.676 179.574 807.987 184.671 798.648 190.332C795.645 192.142 793.141 193.249 790.951 194.04C776.64 199.057 774.531 183.342 754.132 196.093C741.054 204.303 718.083 206.137 693.865 202.372C682.133 200.565 669.666 197.179 657.532 192.046C623.887 177.909 615.815 156.804 605.543 141.84C604.291 140.076 603.171 138.38 601.814 136.721C592.273 124.851 579.272 115.755 566.577 102.42C565.408 101.178 564.105 99.8673 562.803 98.5568C551.904 87.3462 538.954 73.1602 518.8 63.496C499.839 54.4464 475.977 52.9437 453.176 51.9872C437.486 51.3374 421.453 50.8307 404.986 50.6599C345.09 50.0166 282.311 53.4825 222.782 49.7505C163.385 46.0868 105.576 33.1691 66.4301 8.84386" stroke="url(#paint16_linear_376_15964)" stroke-miterlimit="10"/>
<path opacity="0.5952" d="M1660.11 99.002C1612.53 110.861 1562.1 110.778 1515.33 102.185C1483.72 96.3742 1453.96 86.7963 1423.47 79.5616C1404.63 75.1291 1385.44 71.5544 1365.94 69.1854C1344.22 66.5442 1322.22 65.2828 1299.85 63.1889C1284.02 61.6692 1268.48 59.6584 1253.18 57.6101C1232.03 54.7885 1210.52 51.9359 1189.46 51.2394C1161.66 50.2672 1133.46 52.9243 1109.07 63.5397C1100.64 67.186 1092.82 71.7144 1085.11 76.8518C1060.55 93.3771 1041.14 114.709 1013.68 125.184C990.13 134.152 967.813 134.724 944.366 136.632C933.667 137.515 922.784 138.782 911.235 141.225C905.11 142.546 899.04 144.215 892.879 146.076C874.171 151.785 854.988 159.887 838.232 167.161C821.251 174.56 807.663 181.067 798.187 188.176C795.134 190.439 792.565 191.914 790.403 192.878C775.744 199.554 773.128 182.939 752.266 198.17C738.604 208.077 714.983 211.974 690.468 209.415C678.581 208.167 666.049 205.147 653.943 200.189C620.234 186.419 614.602 164.573 606.131 147.898C605.09 145.923 604.18 144.016 603.033 142.146C595.056 128.603 582.928 117.319 571.733 102.678C570.668 101.33 569.59 99.8952 568.392 98.4791C558.691 86.3668 546.587 72.1367 526.474 62.7336C507.143 53.6531 482.385 52.648 459.044 52.1331C442.906 51.7321 426.439 51.5612 409.761 51.6018C348.522 51.705 284.856 54.9539 224.363 51.2846C164.107 47.5778 105.535 35.2261 63.4314 11.4556" stroke="url(#paint17_linear_376_15964)" stroke-miterlimit="10"/>
<path opacity="0.5714" d="M1660.38 95.3044C1613.08 107.387 1562.52 108.037 1515.91 99.6868C1484.33 94.0498 1454.81 84.4344 1424.53 76.9883C1405.79 72.4501 1386.81 68.664 1367.38 65.9283C1345.72 62.9205 1323.87 61.0997 1301.71 58.7944C1285.99 57.1689 1270.48 55.3321 1255.09 53.4766C1233.86 50.9346 1212.07 48.6601 1190.74 48.5417C1162.47 48.446 1134.29 51.9917 1110.13 63.2843C1101.85 67.1729 1094.08 71.9623 1086.62 77.1493C1062.62 94.1217 1043.19 115.367 1014.74 124.928C990.679 132.996 967.626 131.989 943.59 132.475C932.662 132.681 921.565 133.358 909.947 135.366C903.781 136.425 897.551 137.852 891.495 139.608C872.838 144.863 854.13 152.89 837.853 160.891C821.353 169.016 807.997 177.003 798.475 185.367C795.371 188.084 792.844 189.819 790.604 191.064C775.598 199.399 772.502 182.057 751.151 199.593C736.917 211.284 712.766 217.226 687.688 215.737C675.526 215.066 662.931 212.414 650.984 207.698C617.211 194.294 613.901 171.726 607.469 153.304C606.757 151.098 605.939 148.998 605.002 146.917C598.469 131.721 587.452 118.211 577.77 102.351C576.811 100.898 575.956 99.3386 574.864 97.8167C566.374 84.8896 555.102 70.5287 535.149 61.3677C515.328 52.2751 489.899 51.6433 465.899 51.5886C449.327 51.5234 432.531 51.5827 415.406 51.8721C352.955 52.79 288.284 55.8406 226.812 52.147C165.578 48.416 106.375 36.6984 61.1687 13.3274" stroke="url(#paint18_linear_376_15964)" stroke-miterlimit="10"/>
<path opacity="0.5476" d="M1660.63 91.5197C1613.62 103.826 1562.93 105.209 1516.37 97.2069C1484.82 91.7439 1455.43 82.1968 1425.36 74.5393C1406.85 69.8767 1387.84 65.9165 1368.59 62.7955C1347.11 59.4023 1325.3 57.0408 1303.25 54.6298C1287.63 52.8987 1272.13 51.1489 1256.66 49.573C1235.37 47.3977 1213.3 45.6143 1191.7 46.161C1163.07 46.836 1134.79 51.289 1110.87 63.3459C1102.63 67.4955 1095.13 72.4215 1087.82 77.8507C1064.37 95.1832 1044.93 116.341 1015.49 125.077C990.94 132.33 967.137 129.659 942.526 128.809C931.383 128.424 919.939 128.443 908.252 130.016C902.045 130.815 895.788 132.067 889.705 133.649C870.979 138.47 852.865 146.403 837.069 155.131C821.034 163.896 807.911 173.361 798.252 183.173C795.217 186.325 792.506 188.446 790.189 189.97C774.849 200.052 771.141 181.915 749.405 201.651C734.599 215.126 709.799 223.131 684.41 222.761C672.093 222.649 659.447 220.451 647.515 215.822C613.691 202.872 612.689 179.494 608.177 159.344C607.675 156.927 607.067 154.615 606.46 152.304C601.504 135.522 591.346 119.737 583.164 102.572C582.414 100.907 581.56 99.3477 580.692 97.7014C573.413 83.9596 562.972 69.4676 543.061 60.5677C522.87 51.4442 496.663 51.2913 472.006 51.6968C454.999 51.9674 437.755 52.2755 420.301 52.795C356.507 54.4594 290.962 57.3801 228.513 53.6622C166.314 49.9938 106.453 38.7365 58.2756 15.8332" stroke="url(#paint19_linear_376_15964)" stroke-miterlimit="10"/>
<path opacity="0.5238" d="M1660.9 87.8221C1614.17 100.352 1563.37 102.556 1516.96 94.7955C1485.44 89.5065 1456.29 79.922 1426.31 72.0718C1407.89 67.2165 1389.1 63.1319 1369.93 59.7312C1348.64 55.9526 1326.87 53.0505 1304.9 50.4467C1289.39 48.6099 1273.92 47.0341 1258.36 45.6509C1236.99 43.7553 1214.65 42.637 1192.77 43.6748C1163.77 45.1205 1135.41 50.5679 1111.85 63.3703C1103.77 67.7622 1096.31 72.9491 1089.13 78.4466C1066.12 96.2449 1046.78 117.297 1016.34 125.033C991.173 131.491 966.621 127.155 941.42 124.883C929.931 123.839 918.404 123.336 906.516 124.405C900.15 124.962 893.984 126.022 887.873 127.43C869.184 131.71 851.678 139.637 836.228 149.023C820.779 158.409 807.77 169.372 798.079 180.526C794.979 184.045 792.323 186.514 789.928 188.317C774.465 199.934 770.066 181.281 747.828 203.237C732.345 218.601 707.001 228.564 681.182 229.331C668.696 229.692 655.881 227.966 643.976 223.511C610.088 210.927 611.408 186.828 608.816 164.949C608.524 162.32 608.127 159.798 607.729 157.275C604.337 138.82 595.066 120.935 588.502 102.445C587.858 100.674 587.227 98.9904 586.464 97.2384C580.383 82.5948 570.788 68.0589 551.022 59.3142C530.343 50.1785 503.478 50.4859 478.148 51.2646C460.694 51.7841 443.015 52.428 425.337 53.0719C360.199 55.4828 293.781 58.2734 230.354 54.5312C167.178 50.8386 106.686 40.2155 55.5235 17.693" stroke="url(#paint20_linear_376_15964)" stroke-miterlimit="10"/>
<path opacity="0.5" d="M1661.04 84.0562C1614.46 96.8281 1563.65 99.7467 1517.41 92.2288C1485.93 87.2007 1456.88 77.5105 1427.12 69.4489C1373.97 55.1739 1317.68 45.7601 1260.03 41.5548C1209.9 37.9479 1153.63 39.4962 1112.68 63.2393C1078.86 82.8273 1058.27 116.023 1017.18 124.989C979.856 133.095 943.318 116.828 905.032 118.845C859.254 121.238 820.991 148.926 798.17 178.015C775.35 207.105 772.7 177.123 746.516 204.959C722.421 230.594 677.089 244.328 640.939 231.299C602.975 217.575 611.998 188.251 609.621 162.326C607.791 142.199 599.513 122.107 594.343 102.417C589.766 84.9509 581.464 67.8042 559.5 58.2468C538.332 49.099 510.795 49.7795 484.807 51.0185C336.122 58.0257 176.562 70.2218 53.1969 19.9314" stroke="url(#paint21_linear_376_15964)" stroke-miterlimit="10"/>
</g>
</g>
<defs>
<linearGradient id="paint0_linear_376_15964" x1="1659.19" y1="146.291" x2="120.78" y2="-110.273" gradientUnits="userSpaceOnUse">
<stop offset="0.0255456" stop-color="#7C61FF"/>
<stop offset="0.1298" stop-color="#52ABFF"/>
<stop offset="0.1553" stop-color="#5AA2FF"/>
<stop offset="0.1977" stop-color="#6E88FF"/>
<stop offset="0.2518" stop-color="#8F5FFF"/>
<stop offset="0.3149" stop-color="#BD26FF"/>
<stop offset="0.3528" stop-color="#DB00FF"/>
<stop offset="0.6209" stop-color="#9F1EE9"/>
<stop offset="0.9003" stop-color="#50ABFF"/>
<stop offset="1" stop-color="#7A61FF"/>
</linearGradient>
<linearGradient id="paint1_linear_376_15964" x1="1659.12" y1="144.313" x2="119.12" y2="-112.518" gradientUnits="userSpaceOnUse">
<stop offset="0.0255456" stop-color="#7C61FF"/>
<stop offset="0.1298" stop-color="#52ABFF"/>
<stop offset="0.1553" stop-color="#5AA2FF"/>
<stop offset="0.1977" stop-color="#6E88FF"/>
<stop offset="0.2518" stop-color="#8F5FFF"/>
<stop offset="0.3149" stop-color="#BD26FF"/>
<stop offset="0.3528" stop-color="#DB00FF"/>
<stop offset="0.6209" stop-color="#9F1EE9"/>
<stop offset="0.9003" stop-color="#50ABFF"/>
<stop offset="1" stop-color="#7A61FF"/>
</linearGradient>
<linearGradient id="paint2_linear_376_15964" x1="1659.06" y1="142.327" x2="117.293" y2="-114.798" gradientUnits="userSpaceOnUse">
<stop offset="0.0255456" stop-color="#7C61FF"/>
<stop offset="0.1298" stop-color="#52ABFF"/>
<stop offset="0.1553" stop-color="#5AA2FF"/>
<stop offset="0.1977" stop-color="#6E88FF"/>
<stop offset="0.2518" stop-color="#8F5FFF"/>
<stop offset="0.3149" stop-color="#BD26FF"/>
<stop offset="0.3528" stop-color="#DB00FF"/>
<stop offset="0.6209" stop-color="#9F1EE9"/>
<stop offset="0.9003" stop-color="#50ABFF"/>
<stop offset="1" stop-color="#7A61FF"/>
</linearGradient>
<linearGradient id="paint3_linear_376_15964" x1="1659" y1="140.351" x2="115.458" y2="-117.069" gradientUnits="userSpaceOnUse">
<stop offset="0.0255456" stop-color="#7C61FF"/>
<stop offset="0.1298" stop-color="#52ABFF"/>
<stop offset="0.1553" stop-color="#5AA2FF"/>
<stop offset="0.1977" stop-color="#6E88FF"/>
<stop offset="0.2518" stop-color="#8F5FFF"/>
<stop offset="0.3149" stop-color="#BD26FF"/>
<stop offset="0.3528" stop-color="#DB00FF"/>
<stop offset="0.6209" stop-color="#9F1EE9"/>
<stop offset="0.9003" stop-color="#50ABFF"/>
<stop offset="1" stop-color="#7A61FF"/>
</linearGradient>
<linearGradient id="paint4_linear_376_15964" x1="1658.93" y1="138.397" x2="113.623" y2="-119.317" gradientUnits="userSpaceOnUse">
<stop offset="0.0255456" stop-color="#7C61FF"/>
<stop offset="0.1298" stop-color="#52ABFF"/>
<stop offset="0.1553" stop-color="#5AA2FF"/>
<stop offset="0.1977" stop-color="#6E88FF"/>
<stop offset="0.2518" stop-color="#8F5FFF"/>
<stop offset="0.3149" stop-color="#BD26FF"/>
<stop offset="0.3528" stop-color="#DB00FF"/>
<stop offset="0.6209" stop-color="#9F1EE9"/>
<stop offset="0.9003" stop-color="#50ABFF"/>
<stop offset="1" stop-color="#7A61FF"/>
</linearGradient>
<linearGradient id="paint5_linear_376_15964" x1="1658.85" y1="136.472" x2="111.787" y2="-121.537" gradientUnits="userSpaceOnUse">
<stop offset="0.0255456" stop-color="#7C61FF"/>
<stop offset="0.1298" stop-color="#52ABFF"/>
<stop offset="0.1553" stop-color="#5AA2FF"/>
<stop offset="0.1977" stop-color="#6E88FF"/>
<stop offset="0.2518" stop-color="#8F5FFF"/>
<stop offset="0.3149" stop-color="#BD26FF"/>
<stop offset="0.3528" stop-color="#DB00FF"/>
<stop offset="0.6209" stop-color="#9F1EE9"/>
<stop offset="0.9003" stop-color="#50ABFF"/>
<stop offset="1" stop-color="#7A61FF"/>
</linearGradient>
<linearGradient id="paint6_linear_376_15964" x1="1658.78" y1="134.577" x2="109.948" y2="-123.725" gradientUnits="userSpaceOnUse">
<stop offset="0.0255456" stop-color="#7C61FF"/>
<stop offset="0.1298" stop-color="#52ABFF"/>
<stop offset="0.1553" stop-color="#5AA2FF"/>
<stop offset="0.1977" stop-color="#6E88FF"/>
<stop offset="0.2518" stop-color="#8F5FFF"/>
<stop offset="0.3149" stop-color="#BD26FF"/>
<stop offset="0.3528" stop-color="#DB00FF"/>
<stop offset="0.6209" stop-color="#9F1EE9"/>
<stop offset="0.9003" stop-color="#50ABFF"/>
<stop offset="1" stop-color="#7A61FF"/>
</linearGradient>
<linearGradient id="paint7_linear_376_15964" x1="1658.69" y1="132.726" x2="108.105" y2="-125.87" gradientUnits="userSpaceOnUse">
<stop offset="0.0255456" stop-color="#7C61FF"/>
<stop offset="0.1298" stop-color="#52ABFF"/>
<stop offset="0.1553" stop-color="#5AA2FF"/>
<stop offset="0.1977" stop-color="#6E88FF"/>
<stop offset="0.2518" stop-color="#8F5FFF"/>
<stop offset="0.3149" stop-color="#BD26FF"/>
<stop offset="0.3528" stop-color="#DB00FF"/>
<stop offset="0.6209" stop-color="#9F1EE9"/>
<stop offset="0.9003" stop-color="#50ABFF"/>
<stop offset="1" stop-color="#7A61FF"/>
</linearGradient>
<linearGradient id="paint8_linear_376_15964" x1="1658.6" y1="130.932" x2="106.255" y2="-127.956" gradientUnits="userSpaceOnUse">
<stop offset="0.0255456" stop-color="#7C61FF"/>
<stop offset="0.1298" stop-color="#52ABFF"/>
<stop offset="0.1553" stop-color="#5AA2FF"/>
<stop offset="0.1977" stop-color="#6E88FF"/>
<stop offset="0.2518" stop-color="#8F5FFF"/>
<stop offset="0.3149" stop-color="#BD26FF"/>
<stop offset="0.3528" stop-color="#DB00FF"/>
<stop offset="0.6209" stop-color="#9F1EE9"/>
<stop offset="0.9003" stop-color="#50ABFF"/>
<stop offset="1" stop-color="#7A61FF"/>
</linearGradient>
<linearGradient id="paint9_linear_376_15964" x1="1658.49" y1="129.213" x2="104.393" y2="-129.968" gradientUnits="userSpaceOnUse">
<stop offset="0.0255456" stop-color="#7C61FF"/>
<stop offset="0.1298" stop-color="#52ABFF"/>
<stop offset="0.1553" stop-color="#5AA2FF"/>
<stop offset="0.1977" stop-color="#6E88FF"/>
<stop offset="0.2518" stop-color="#8F5FFF"/>
<stop offset="0.3149" stop-color="#BD26FF"/>
<stop offset="0.3528" stop-color="#DB00FF"/>
<stop offset="0.6209" stop-color="#9F1EE9"/>
<stop offset="0.9003" stop-color="#50ABFF"/>
<stop offset="1" stop-color="#7A61FF"/>
</linearGradient>
<linearGradient id="paint10_linear_376_15964" x1="1658.36" y1="127.603" x2="102.515" y2="-131.87" gradientUnits="userSpaceOnUse">
<stop offset="0.0255456" stop-color="#7C61FF"/>
<stop offset="0.1298" stop-color="#52ABFF"/>
<stop offset="0.1553" stop-color="#5AA2FF"/>
<stop offset="0.1977" stop-color="#6E88FF"/>
<stop offset="0.2518" stop-color="#8F5FFF"/>
<stop offset="0.3149" stop-color="#BD26FF"/>
<stop offset="0.3528" stop-color="#DB00FF"/>
<stop offset="0.6209" stop-color="#9F1EE9"/>
<stop offset="0.9003" stop-color="#50ABFF"/>
<stop offset="1" stop-color="#7A61FF"/>
</linearGradient>
<linearGradient id="paint11_linear_376_15964" x1="1658.21" y1="126.178" x2="100.607" y2="-133.587" gradientUnits="userSpaceOnUse">
<stop offset="0.0255456" stop-color="#7C61FF"/>
<stop offset="0.1298" stop-color="#52ABFF"/>
<stop offset="0.1553" stop-color="#5AA2FF"/>
<stop offset="0.1977" stop-color="#6E88FF"/>
<stop offset="0.2518" stop-color="#8F5FFF"/>
<stop offset="0.3149" stop-color="#BD26FF"/>
<stop offset="0.3528" stop-color="#DB00FF"/>
<stop offset="0.6209" stop-color="#9F1EE9"/>
<stop offset="0.9003" stop-color="#50ABFF"/>
<stop offset="1" stop-color="#7A61FF"/>
</linearGradient>
<linearGradient id="paint12_linear_376_15964" x1="1657.93" y1="125.49" x2="98.5759" y2="-134.568" gradientUnits="userSpaceOnUse">
<stop offset="0.0255456" stop-color="#7C61FF"/>
<stop offset="0.1298" stop-color="#52ABFF"/>
<stop offset="0.1553" stop-color="#5AA2FF"/>
<stop offset="0.1977" stop-color="#6E88FF"/>
<stop offset="0.2518" stop-color="#8F5FFF"/>
<stop offset="0.3149" stop-color="#BD26FF"/>
<stop offset="0.3528" stop-color="#DB00FF"/>
<stop offset="0.6209" stop-color="#9F1EE9"/>
<stop offset="0.9003" stop-color="#50ABFF"/>
<stop offset="1" stop-color="#7A61FF"/>
</linearGradient>
<linearGradient id="paint13_linear_376_15964" x1="1657.5" y1="125.728" x2="96.3904" y2="-134.621" gradientUnits="userSpaceOnUse">
<stop offset="0.0255456" stop-color="#7C61FF"/>
<stop offset="0.1298" stop-color="#52ABFF"/>
<stop offset="0.1553" stop-color="#5AA2FF"/>
<stop offset="0.1977" stop-color="#6E88FF"/>
<stop offset="0.2518" stop-color="#8F5FFF"/>
<stop offset="0.3149" stop-color="#BD26FF"/>
<stop offset="0.3528" stop-color="#DB00FF"/>
<stop offset="0.6209" stop-color="#9F1EE9"/>
<stop offset="0.9003" stop-color="#50ABFF"/>
<stop offset="1" stop-color="#7A61FF"/>
</linearGradient>
<linearGradient id="paint14_linear_376_15964" x1="1657.02" y1="126.249" x2="94.157" y2="-134.393" gradientUnits="userSpaceOnUse">
<stop offset="0.0255456" stop-color="#7C61FF"/>
<stop offset="0.1298" stop-color="#52ABFF"/>
<stop offset="0.1553" stop-color="#5AA2FF"/>
<stop offset="0.1977" stop-color="#6E88FF"/>
<stop offset="0.2518" stop-color="#8F5FFF"/>
<stop offset="0.3149" stop-color="#BD26FF"/>
<stop offset="0.3528" stop-color="#DB00FF"/>
<stop offset="0.6209" stop-color="#9F1EE9"/>
<stop offset="0.9003" stop-color="#50ABFF"/>
<stop offset="1" stop-color="#7A61FF"/>
</linearGradient>
<linearGradient id="paint15_linear_376_15964" x1="1656.17" y1="128.939" x2="91.5616" y2="-131.996" gradientUnits="userSpaceOnUse">
<stop offset="0.0255456" stop-color="#7C61FF"/>
<stop offset="0.1298" stop-color="#52ABFF"/>
<stop offset="0.1553" stop-color="#5AA2FF"/>
<stop offset="0.1977" stop-color="#6E88FF"/>
<stop offset="0.2518" stop-color="#8F5FFF"/>
<stop offset="0.3149" stop-color="#BD26FF"/>
<stop offset="0.3528" stop-color="#DB00FF"/>
<stop offset="0.6209" stop-color="#9F1EE9"/>
<stop offset="0.9003" stop-color="#50ABFF"/>
<stop offset="1" stop-color="#7A61FF"/>
</linearGradient>
<linearGradient id="paint16_linear_376_15964" x1="1655.17" y1="132.604" x2="88.8031" y2="-128.623" gradientUnits="userSpaceOnUse">
<stop offset="0.0255456" stop-color="#7C61FF"/>
<stop offset="0.1298" stop-color="#52ABFF"/>
<stop offset="0.1553" stop-color="#5AA2FF"/>
<stop offset="0.1977" stop-color="#6E88FF"/>
<stop offset="0.2518" stop-color="#8F5FFF"/>
<stop offset="0.3149" stop-color="#BD26FF"/>
<stop offset="0.3528" stop-color="#DB00FF"/>
<stop offset="0.6209" stop-color="#9F1EE9"/>
<stop offset="0.9003" stop-color="#50ABFF"/>
<stop offset="1" stop-color="#7A61FF"/>
</linearGradient>
<linearGradient id="paint17_linear_376_15964" x1="1654.11" y1="136.618" x2="85.9854" y2="-124.902" gradientUnits="userSpaceOnUse">
<stop offset="0.0255456" stop-color="#7C61FF"/>
<stop offset="0.1298" stop-color="#52ABFF"/>
<stop offset="0.1553" stop-color="#5AA2FF"/>
<stop offset="0.1977" stop-color="#6E88FF"/>
<stop offset="0.2518" stop-color="#8F5FFF"/>
<stop offset="0.3149" stop-color="#BD26FF"/>
<stop offset="0.3528" stop-color="#DB00FF"/>
<stop offset="0.6209" stop-color="#9F1EE9"/>
<stop offset="0.9003" stop-color="#50ABFF"/>
<stop offset="1" stop-color="#7A61FF"/>
</linearGradient>
<linearGradient id="paint18_linear_376_15964" x1="1653" y1="140.875" x2="83.126" y2="-120.938" gradientUnits="userSpaceOnUse">
<stop offset="0.0255456" stop-color="#7C61FF"/>
<stop offset="0.1298" stop-color="#52ABFF"/>
<stop offset="0.1553" stop-color="#5AA2FF"/>
<stop offset="0.1977" stop-color="#6E88FF"/>
<stop offset="0.2518" stop-color="#8F5FFF"/>
<stop offset="0.3149" stop-color="#BD26FF"/>
<stop offset="0.3528" stop-color="#DB00FF"/>
<stop offset="0.6209" stop-color="#9F1EE9"/>
<stop offset="0.9003" stop-color="#50ABFF"/>
<stop offset="1" stop-color="#7A61FF"/>
</linearGradient>
<linearGradient id="paint19_linear_376_15964" x1="1651.87" y1="145.298" x2="80.2382" y2="-116.807" gradientUnits="userSpaceOnUse">
<stop offset="0.0255456" stop-color="#7C61FF"/>
<stop offset="0.1298" stop-color="#52ABFF"/>
<stop offset="0.1553" stop-color="#5AA2FF"/>
<stop offset="0.1977" stop-color="#6E88FF"/>
<stop offset="0.2518" stop-color="#8F5FFF"/>
<stop offset="0.3149" stop-color="#BD26FF"/>
<stop offset="0.3528" stop-color="#DB00FF"/>
<stop offset="0.6209" stop-color="#9F1EE9"/>
<stop offset="0.9003" stop-color="#50ABFF"/>
<stop offset="1" stop-color="#7A61FF"/>
</linearGradient>
<linearGradient id="paint20_linear_376_15964" x1="1650.72" y1="149.837" x2="77.3298" y2="-112.561" gradientUnits="userSpaceOnUse">
<stop offset="0.0255456" stop-color="#7C61FF"/>
<stop offset="0.1298" stop-color="#52ABFF"/>
<stop offset="0.1553" stop-color="#5AA2FF"/>
<stop offset="0.1977" stop-color="#6E88FF"/>
<stop offset="0.2518" stop-color="#8F5FFF"/>
<stop offset="0.3149" stop-color="#BD26FF"/>
<stop offset="0.3528" stop-color="#DB00FF"/>
<stop offset="0.6209" stop-color="#9F1EE9"/>
<stop offset="0.9003" stop-color="#50ABFF"/>
<stop offset="1" stop-color="#7A61FF"/>
</linearGradient>
<linearGradient id="paint21_linear_376_15964" x1="1649.87" y1="152.583" x2="74.7199" y2="-110.108" gradientUnits="userSpaceOnUse">
<stop offset="0.0255456" stop-color="#7C61FF"/>
<stop offset="0.1298" stop-color="#52ABFF"/>
<stop offset="0.1553" stop-color="#5AA2FF"/>
<stop offset="0.1977" stop-color="#6E88FF"/>
<stop offset="0.2518" stop-color="#8F5FFF"/>
<stop offset="0.3149" stop-color="#BD26FF"/>
<stop offset="0.3528" stop-color="#DB00FF"/>
<stop offset="0.6209" stop-color="#9F1EE9"/>
<stop offset="0.9003" stop-color="#50ABFF"/>
<stop offset="1" stop-color="#7A61FF"/>
</linearGradient>
<clipPath id="clip0_376_15964">
<rect width="1440" height="405" fill="white"/>
</clipPath>
</defs>
</svg>
