<svg width="1613" height="581" viewBox="0 0 1613 581" fill="none" xmlns="http://www.w3.org/2000/svg">
<g opacity="0.4">
<path d="M58.7295 1.65564C167.986 12.8908 241.394 108.015 350.694 118.812C374.996 121.213 399.86 119.156 423.439 125.202C463.647 135.456 487.198 165.039 510.147 190.933C532.976 216.815 566.877 244.411 608.15 243.887C642.641 243.489 666.876 223.317 684.654 203.658C703.922 182.376 720.771 159.882 740.62 138.835C754.269 124.255 770.056 110.063 791.917 101.692C813.777 93.3205 843.181 91.8005 866.097 102.117C895.611 115.386 904.67 142.386 907.532 166.031C912.637 209.808 906.794 254.273 926.019 297.056C945.244 339.838 1001.17 381.91 1062.61 379.13C1109.6 376.959 1149.55 349.49 1196.6 357.766C1226.54 363.112 1249.49 381.662 1266.36 400.496C1283.25 419.243 1297.29 439.833 1320.7 454.977C1355.35 477.426 1403.33 483.67 1445.04 498.233C1486.76 512.796 1526.99 546.061 1510.44 574.071" stroke="url(#paint0_linear_467_16211)" stroke-miterlimit="10"/>
<path opacity="0.9762" d="M57.6477 5.26537C109.613 10.3101 154.038 34.1669 197.623 59.1796C226.8 75.8666 255.677 93.1434 286.612 105.491C306.273 113.274 326.731 119.1 348.613 121.527C372.761 124.266 397.333 122.711 420.784 128.833C437.635 133.241 451.745 140.918 464.117 150.281C480.992 163.01 494.802 178.621 508.485 193.069C525.892 211.426 549.029 230.525 576.377 238.801C586.123 241.711 596.358 243.341 607.031 242.98C641.095 242.008 665.415 222.199 683.825 203.488C703.587 183.317 720.52 162.424 740.589 142.814C749.691 133.891 759.622 125.138 771.578 117.912C777.748 114.185 784.483 110.868 791.883 108.148C813.581 100.203 842.506 98.6361 865.141 108.128C888.578 118.054 899.221 136.361 904.433 154.575C905.702 158.859 906.475 163.272 907.265 167.509C909.923 183.434 910.749 200.772 912.484 216.253C915.225 241.124 918.179 266.282 930.575 291.311C936.419 303.127 945.154 315.052 956.045 325.95C983.088 353.222 1021.64 374.11 1063.07 373.246C1067.91 373.194 1072.66 372.779 1077.44 372.188C1112.69 367.707 1144.75 351.582 1180.43 355.018C1183.79 355.349 1187.24 355.868 1190.68 356.561C1219.23 362.391 1241.22 380.933 1258.25 399.429C1268.62 410.631 1278.5 422.048 1289.66 432.62C1297.4 439.933 1305.89 446.966 1315.94 453.002C1351.96 474.968 1400.87 481.657 1443.52 496.489C1486.18 511.322 1527.18 544.133 1513.62 572.526" stroke="url(#paint1_linear_467_16211)" stroke-miterlimit="10"/>
<path opacity="0.9524" d="M56.4548 8.7757C108.326 13.5457 152.94 36.7132 196.552 61.463C225.746 77.9747 254.383 95.2278 285.19 107.651C304.603 115.498 324.924 121.487 346.651 124.253C370.525 127.319 394.925 126.279 418.248 132.476C434.97 136.96 449.089 144.549 461.607 153.661C478.637 166.051 492.969 181.272 506.952 195.13C524.907 212.833 548.37 231.079 575.676 238.555C585.328 241.19 595.469 242.545 606.151 242.096C639.908 240.564 664.322 221.029 683.244 203.253C703.492 184.281 720.636 164.913 740.798 146.817C749.95 138.606 759.949 130.391 771.973 123.703C778.117 120.239 784.834 117.098 792.218 114.553C813.872 107.046 842.207 105.332 864.543 114.175C887.7 123.277 898.472 140.269 904.062 157.104C905.366 161.038 906.293 165.112 907.229 169.098C910.376 183.745 911.92 201.153 914.529 215.127C918.786 238.113 922.367 261.829 935.465 285.865C941.72 297.191 950.609 308.777 961.398 319.488C988.595 346.421 1024.72 367.423 1063.73 367.737C1068.33 367.748 1072.82 367.572 1077.21 367.122C1110.54 363.865 1141.08 349.626 1175.11 353.873C1178.33 354.28 1181.54 354.862 1184.85 355.631C1212.03 361.944 1233.05 380.392 1250.11 398.625C1260.83 410.037 1271.57 421.187 1283.49 431.479C1291.72 438.664 1300.72 445.482 1311.01 451.454C1348.53 473.035 1398.24 480.07 1441.84 495.173C1485.44 510.275 1527.2 542.719 1516.63 571.408" stroke="url(#paint2_linear_467_16211)" stroke-miterlimit="10"/>
<path opacity="0.9286" d="M55.2531 12.3737C106.911 16.8571 151.834 39.3472 195.36 63.7346C224.572 80.071 253.098 97.2247 283.639 109.887C302.923 117.81 323.108 123.963 344.561 127.055C368.161 130.449 392.389 129.922 415.455 136.271C432.05 140.83 446.186 148.244 458.841 157.193C476.136 169.344 490.759 184.062 505.153 197.43C523.776 214.491 547.454 231.785 574.598 238.448C584.277 240.82 594.324 241.901 604.784 241.253C638.105 239.235 662.613 219.976 682.175 203.059C702.798 185.186 720.146 167.431 740.528 150.773C749.859 143.199 759.908 135.696 771.769 129.435C778.016 126.158 784.707 123.279 791.954 120.898C813.445 113.818 841.301 112.056 863.356 120.076C886.223 128.44 897.134 144.031 903.23 159.411C904.688 163.007 905.77 166.742 906.74 170.377C910.487 183.844 912.519 201.212 916.13 213.604C922.04 234.541 926.118 256.89 939.8 279.922C946.338 290.833 955.389 301.992 966.195 312.528C993.547 339.123 1027.25 360.151 1063.96 361.742C1068.3 361.905 1072.53 361.881 1076.67 361.582C1108.06 359.55 1137.2 347.208 1169.34 352.329C1172.31 352.8 1175.39 353.458 1178.57 354.303C1204.36 361.187 1224.55 379.552 1241.64 397.435C1252.71 408.97 1264.33 419.852 1276.88 429.853C1285.62 436.822 1294.99 443.5 1305.78 449.344C1344.79 470.542 1395.31 477.922 1439.85 493.295C1484.28 508.568 1526.92 540.656 1519.46 569.74" stroke="url(#paint3_linear_467_16211)" stroke-miterlimit="10"/>
<path opacity="0.9048" d="M54.1799 15.8959C105.624 20.0928 150.856 41.9054 194.408 66.0299C223.637 82.1911 251.924 99.3211 282.337 112.06C301.493 120.058 321.42 126.362 342.608 129.694C366.053 133.426 389.982 133.489 412.928 139.826C429.403 144.374 443.539 151.788 456.348 160.398C473.797 172.21 488.704 186.514 503.637 199.316C522.8 215.81 546.82 232.076 573.915 238.027C583.499 240.124 593.444 241.018 603.802 240.183C636.696 237.592 661.298 218.607 681.363 202.714C702.481 185.951 720.032 169.809 740.635 154.588C750.016 147.728 760.125 140.85 772.062 135.039C778.283 132.025 784.957 129.322 792.186 127.115C813.505 120.549 840.891 118.653 862.665 125.848C885.131 133.377 896.163 147.74 902.766 161.666C904.258 164.911 905.494 168.307 906.611 171.692C910.957 183.979 913.605 201.231 917.962 212.192C925.525 231.08 930.101 252.062 944.485 274.102C951.314 284.511 960.52 295.331 971.343 305.692C998.73 331.936 1030.12 353.09 1064.42 355.859C1068.5 356.173 1072.36 356.289 1076.36 356.153C1105.82 355.346 1133.45 344.802 1163.92 350.821C1166.77 351.368 1169.72 352.102 1172.65 353.011C1197.07 360.378 1216.3 378.649 1233.42 396.268C1244.83 408.015 1257.33 418.541 1270.62 428.35C1279.86 435.191 1289.74 441.653 1300.9 447.358C1341.28 468.072 1392.73 475.898 1438.21 491.54C1483.58 507.083 1526.98 538.804 1522.51 568.183" stroke="url(#paint4_linear_467_16211)" stroke-miterlimit="10"/>
<path opacity="0.881" d="M52.9784 19.4939C104.329 23.416 149.749 44.5394 193.217 68.3015C222.343 84.2756 250.63 101.406 280.786 114.296C299.814 122.37 319.484 128.826 340.518 132.497C363.689 136.555 387.446 137.132 410.255 143.633C426.602 148.256 440.875 155.507 453.701 163.942C471.296 175.503 486.733 189.328 501.967 201.54C521.678 217.381 546.033 232.706 573.077 237.944C582.687 239.778 592.538 240.398 602.794 239.375C635.381 236.223 659.948 217.589 680.653 202.555C702.138 186.979 719.901 172.362 740.716 158.667C750.156 152.432 760.323 146.18 772.209 140.894C778.404 138.143 785.06 135.615 792.281 133.496C813.437 127.356 840.353 125.325 861.708 131.859C883.893 138.564 895.055 151.613 902.164 164.085C903.811 166.991 905.082 170.036 906.463 173.182C911.402 184.377 914.563 201.326 919.905 210.88C929.258 227.555 934.066 247.41 949.161 268.37C956.401 278.288 965.762 288.77 976.491 298.856C1004.03 324.761 1033 346.029 1065 349.987C1068.71 350.441 1072.43 350.72 1076.17 350.736C1103.68 351.242 1129.93 342.508 1158.5 349.401C1161.22 350.023 1163.92 350.821 1166.73 351.806C1189.76 359.745 1208.15 377.932 1225.3 395.201C1237.06 407.071 1250.43 417.417 1264.47 426.946C1274.22 433.572 1284.47 439.894 1296.01 445.459C1337.88 465.789 1390.13 474.048 1436.56 489.873C1482.87 505.686 1527.05 536.951 1525.56 566.715" stroke="url(#paint5_linear_467_16211)" stroke-miterlimit="10"/>
<path opacity="0.8571" d="M51.7854 23.0042C102.922 26.6398 148.652 47.0857 192.145 70.5849C221.297 86.296 249.345 103.402 279.364 116.456C298.143 124.594 317.797 131.225 338.556 135.223C361.454 139.609 385.039 140.7 407.72 147.276C423.937 151.975 438.219 159.138 451.192 167.322C468.941 178.544 484.78 191.967 500.425 203.689C520.684 218.875 545.374 233.261 572.367 237.786C581.884 239.345 591.641 239.69 601.785 238.568C633.946 234.842 658.606 216.483 679.944 202.396C701.803 187.919 719.778 174.828 740.805 162.658C750.416 157.147 760.522 151.509 772.475 146.761C778.644 144.273 785.284 141.92 792.367 139.965C813.361 134.251 839.678 132.161 860.872 137.883C882.775 143.763 893.939 155.573 901.674 166.602C903.475 169.17 904.78 171.865 906.316 174.671C911.846 184.775 913.253 202.347 921.848 209.567C928.414 225.083 938.031 242.758 953.957 262.649C961.48 272.153 971.004 282.208 981.75 292.119C1009.33 317.674 1035.98 339.068 1065.69 344.215C1069.14 344.821 1072.6 345.251 1075.96 345.495C1101.54 347.225 1126.27 340.376 1153.08 348.068C1155.55 348.755 1158.12 349.628 1160.79 350.689C1182.45 359.111 1199.88 377.204 1217.06 394.21C1229.16 406.29 1243.53 416.293 1258.21 425.531C1268.45 431.941 1279.2 438.135 1291.11 443.648C1334.47 463.594 1387.54 472.199 1434.91 488.206C1482.16 504.288 1527.1 535.187 1528.6 565.246" stroke="url(#paint6_linear_467_16211)" stroke-miterlimit="10"/>
<path opacity="0.8333" d="M50.5839 26.6022C101.508 29.9512 147.554 49.632 190.954 72.8565C220.123 88.3924 248.051 105.487 277.814 118.692C296.456 126.994 315.861 133.689 336.475 137.938C359.218 142.662 382.392 144.243 404.945 150.896C421.034 155.671 435.333 162.658 448.442 170.679C466.337 181.65 482.588 194.582 498.653 205.726C519.459 220.259 544.475 233.791 571.436 237.428C580.978 238.725 590.642 238.794 600.564 237.474C632.297 233.175 657.043 215.178 679.02 201.951C701.246 188.661 719.553 177.107 740.672 166.45C750.342 161.565 760.619 156.651 772.529 152.341C778.791 150.128 785.285 148.026 792.36 146.158C813.31 140.883 839.029 138.734 859.941 143.631C881.563 148.687 892.848 159.271 900.97 168.834C902.806 171.05 904.257 173.495 905.947 175.962C912.188 184.986 913.715 202.569 923.56 208.144C931.035 221.802 941.894 237.918 958.403 256.805C966.217 265.807 976.015 275.535 986.659 285.259C1014.39 310.475 1038.62 331.983 1065.92 338.308C1069.1 339.065 1072.31 339.647 1075.42 340.043C1099.06 342.998 1122.39 338.046 1147.42 346.536C1149.77 347.299 1152.21 348.248 1154.64 349.373C1174.91 358.278 1191.51 376.289 1208.7 393.119C1221.16 405.323 1236.4 415.058 1251.82 424.103C1262.56 430.385 1273.82 436.364 1286.1 441.737C1330.84 461.2 1384.83 470.25 1433.14 486.526C1481.34 502.792 1527.04 533.323 1531.65 563.777" stroke="url(#paint7_linear_467_16211)" stroke-miterlimit="10"/>
<path opacity="0.8095" d="M49.5106 30.1244C100.212 33.2745 146.448 52.266 189.882 75.14C219.069 90.5006 246.766 107.484 276.272 120.841C294.785 129.218 314.054 136.077 334.394 140.652C356.862 145.704 379.865 147.799 402.28 154.615C418.241 159.466 432.549 166.366 445.804 174.135C463.973 184.779 480.515 197.209 496.982 207.95C518.337 221.829 543.688 234.422 570.597 237.345C580.046 238.367 589.608 238.25 599.427 236.742C630.845 231.97 655.573 214.148 678.174 201.956C700.774 189.764 719.284 179.823 740.744 170.616C750.464 166.444 760.809 162.068 772.667 158.283C778.912 156.246 785.38 154.407 792.437 152.715C813.225 147.866 838.464 145.669 859.087 149.83C880.3 154.138 891.825 163.506 900.47 171.439C902.461 173.317 903.946 175.411 905.911 177.552C912.863 185.495 914.398 202.991 925.614 206.931C934.007 218.644 946.09 233.377 963.181 251.26C971.407 259.771 981.239 269.149 991.901 278.697C1019.78 303.663 1041.59 325.109 1066.59 332.711C1069.52 333.62 1072.35 334.342 1075.32 334.901C1097.03 339.08 1118.97 336.027 1142.1 345.391C1144.3 346.317 1146.51 347.242 1148.81 348.443C1167.7 357.919 1183.45 375.847 1200.56 392.315C1213.49 404.653 1229.47 414.196 1245.65 422.962C1256.9 429.029 1268.53 434.868 1281.19 440.101C1327.41 459.18 1382.21 468.575 1431.47 485.122C1480.61 501.657 1527.07 531.821 1534.68 562.483" stroke="url(#paint8_linear_467_16211)" stroke-miterlimit="10"/>
<path opacity="0.7857" d="M48.3091 33.7223C98.8058 36.4982 145.35 54.8123 188.81 77.4233C218.015 92.6086 245.592 109.58 274.841 123.088C293.226 131.542 312.238 138.552 332.432 143.379C354.627 148.757 377.458 151.366 399.745 158.258C415.697 163.196 429.902 169.909 443.294 177.515C461.609 187.908 478.562 199.848 495.449 210.011C517.472 223.248 543.037 234.888 569.777 237.087C579.132 237.834 588.719 237.454 598.437 235.759C629.427 230.414 654.121 212.942 677.482 201.622C700.337 190.518 719.171 182.201 740.842 174.519C750.622 170.972 761.017 167.309 772.951 163.975C779.17 162.2 785.74 160.548 792.661 159.02C813.285 154.597 838.055 152.265 858.388 155.69C879.319 159.173 891.085 167.326 899.997 173.782C902.142 175.321 903.773 177.163 905.772 178.954C913.418 185.992 915.091 203.325 927.437 205.606C936.739 215.463 949.944 228.625 967.858 245.527C976.375 253.536 986.37 262.488 997.16 271.961C1025.19 296.587 1044.58 318.147 1067.16 326.927C1069.84 327.988 1072.41 328.861 1075.12 329.571C1094.89 334.976 1115.32 333.808 1136.8 343.982C1138.75 344.972 1140.83 345.974 1143 347.25C1160.51 357.21 1175.31 375.043 1192.57 391.26C1205.84 403.809 1222.7 412.996 1239.51 421.471C1251.13 427.398 1263.39 433.033 1276.43 438.126C1324.14 456.821 1379.75 466.562 1429.95 483.379C1480.03 500.184 1527.25 529.981 1537.85 560.938" stroke="url(#paint9_linear_467_16211)" stroke-miterlimit="10"/>
<path opacity="0.7619" d="M47.1073 37.3203C97.5103 39.8215 144.243 57.4463 187.619 79.6949C216.84 94.705 244.178 111.653 273.299 125.237C291.436 133.754 310.43 140.94 330.231 146.082C352.271 151.798 374.811 154.91 396.841 161.953C412.665 166.968 426.999 173.605 440.417 180.947C458.886 191.002 476.241 202.539 493.539 212.212C516.119 224.707 542.001 235.582 568.708 236.893C578.089 237.377 587.463 236.711 597.069 234.916C627.633 228.998 652.3 211.789 676.413 201.428C699.643 191.422 718.8 184.731 740.572 178.475C750.522 175.653 760.976 172.615 772.747 169.707C778.94 168.195 785.493 166.718 792.396 165.365C812.858 161.369 837.148 158.99 857.2 161.59C877.85 164.249 889.849 171.275 899.156 176.176C901.455 177.377 903.626 178.653 905.266 180.408C915.189 185.194 915.304 203.611 929.021 204.258C939.231 212.258 953.67 223.949 972.175 239.759C980.974 247.354 991.252 255.891 1001.95 265.089C1030.13 289.376 1047.09 311.051 1067.38 321.02C1069.8 322.232 1072.12 323.257 1074.45 324.107C1092.29 330.737 1111.32 331.466 1130.9 342.515C1132.73 343.58 1134.67 344.745 1136.6 345.998C1152.73 356.441 1166.69 374.191 1183.86 390.134C1197.47 402.806 1215.2 411.813 1232.76 420.008C1244.89 425.72 1257.53 431.215 1271.06 436.18C1320.15 454.392 1376.68 464.578 1427.82 481.665C1478.72 498.728 1526.83 528.081 1540.42 559.422" stroke="url(#paint10_linear_467_16211)" stroke-miterlimit="10"/>
<path opacity="0.7381" d="M46.0341 40.8425C96.1039 43.0452 143.265 60.0044 186.547 81.9783C215.675 96.7137 243.013 113.661 271.868 127.485C289.877 136.078 308.614 143.415 328.26 148.896C350.027 154.939 372.395 158.565 394.296 165.684C409.992 170.774 424.343 177.236 437.898 184.415C456.513 194.218 474.279 205.265 491.997 214.36C515.125 226.202 541.342 236.137 567.998 236.735C577.286 236.944 586.677 236.102 596.069 234.021C626.326 227.541 650.968 210.596 675.712 201.182C699.198 192.263 718.677 187.197 740.661 182.466C750.67 180.269 761.183 177.856 773.022 175.486C779.19 174.237 785.725 172.936 792.491 171.746C812.909 168.188 836.602 165.749 856.363 167.613C876.604 169.524 889.091 175.271 898.555 178.595C901.008 179.457 903.333 180.394 905.008 181.799C915.659 185.329 915.876 203.933 930.852 202.846C941.971 208.989 957.652 219.122 976.86 233.939C986.07 241.043 996.383 249.23 1007.1 258.252C1035.43 282.201 1049.96 303.99 1067.84 315.136C1070.01 316.412 1072.06 317.677 1074.14 318.679C1090.05 326.533 1107.56 329.148 1125.49 341.007C1127.19 342.148 1128.88 343.377 1130.68 344.706C1145.43 355.72 1158.56 373.299 1175.75 388.979C1189.84 401.786 1208.32 410.514 1226.63 418.429C1239.27 423.925 1252.4 429.293 1266.18 434.193C1316.76 452.021 1374.1 462.553 1426.18 479.91C1478.03 497.155 1526.9 526.229 1543.59 557.877" stroke="url(#paint11_linear_467_16211)" stroke-miterlimit="10"/>
<path opacity="0.7143" d="M44.8324 44.4405C94.8085 46.3685 142.159 62.6384 185.475 84.2618C214.62 98.8218 241.719 115.746 270.437 129.733C288.317 138.402 306.918 145.902 326.298 151.622C347.791 157.993 369.987 162.132 391.761 169.327C407.328 174.493 421.688 180.867 435.388 187.796C454.157 197.26 472.326 207.904 490.464 216.421C514.259 227.621 540.683 236.691 567.297 236.488C576.61 236.435 585.788 235.306 595.07 233.126C624.899 226.073 649.515 209.39 675.002 201.023C698.743 193.192 718.665 189.762 740.87 186.469C750.929 184.985 761.502 183.197 773.409 181.365C779.67 180.39 786.068 179.253 792.817 178.238C813.063 175.194 836.166 172.609 855.766 173.66C875.725 174.747 888.702 179.214 898.304 181.136C901.031 181.671 903.271 182.246 905.211 183.412C916.711 185.698 916.791 204.466 933.137 201.745C945.045 206.018 962.079 214.692 981.878 228.417C991.38 235.019 1001.97 242.879 1012.58 251.714C1040.95 275.313 1053.17 297.227 1068.76 309.563C1070.55 310.979 1072.35 312.307 1074.28 313.56C1088.26 322.639 1104.38 327.064 1120.4 339.885C1121.85 341.09 1123.42 342.395 1125.09 343.799C1138.46 355.297 1150.75 372.794 1167.85 388.199C1182.28 401.216 1201.76 409.601 1220.7 417.312C1233.83 422.68 1247.34 427.82 1261.62 432.593C1313.57 450.025 1371.85 460.915 1424.75 478.529C1477.54 496.044 1527.17 524.663 1546.85 556.695" stroke="url(#paint12_linear_467_16211)" stroke-miterlimit="10"/>
<path opacity="0.6905" d="M43.6397 47.9508C93.4023 49.5922 141.062 65.1847 184.284 86.5334C213.446 100.918 240.425 117.83 268.895 131.881C286.647 140.626 304.991 148.278 324.217 154.337C345.555 161.046 367.46 165.688 389.097 173.046C404.544 178.2 418.904 184.574 432.75 191.252C451.785 200.477 470.254 210.531 488.913 218.657C513.257 229.203 540.015 237.333 566.588 236.33C575.807 236.002 585.011 234.61 594.19 232.242C623.593 224.616 648.183 208.197 674.421 200.789C698.426 193.957 718.662 192.239 741.088 190.384C751.326 189.537 761.949 188.462 773.693 187.056C779.928 186.345 786.3 185.47 793.041 184.543C813.124 181.925 835.756 179.205 854.947 179.508C874.625 179.771 888.285 184.66 897.711 183.467C900.525 183.126 902.987 183.9 904.953 184.802C917.181 185.833 917.372 204.701 934.969 200.333C947.786 202.749 965.942 209.852 986.554 222.685C996.467 228.796 1007.09 236.305 1017.72 244.966C1046.24 268.225 1056.04 290.254 1069.33 303.779C1070.86 305.346 1072.41 306.827 1074.08 308.231C1086.13 318.447 1100.85 324.857 1115.1 338.476C1116.42 339.757 1117.86 341.138 1119.29 342.519C1131.28 354.587 1142.74 371.914 1159.85 387.143C1174.63 400.284 1194.98 408.488 1214.67 415.92C1228.31 421.072 1242.32 426.085 1256.97 430.718C1310.42 447.678 1369.5 459.001 1423.35 476.798C1477.08 494.583 1527.47 522.835 1550.15 555.162" stroke="url(#paint13_linear_467_16211)" stroke-miterlimit="10"/>
<path opacity="0.6667" d="M42.5577 51.5606C92.1068 52.9155 140.083 67.7429 183.332 88.8286C212.511 103.038 239.259 119.839 267.584 134.141C285.088 142.95 303.295 150.766 322.367 157.163C343.43 164.199 365.035 169.43 386.552 176.777C401.871 182.007 416.248 188.206 430.232 194.72C449.412 203.694 468.412 213.269 487.371 220.806C512.263 230.698 539.356 237.887 565.758 236.159C575.004 235.568 583.994 233.89 593.062 231.423C622.149 223.323 646.611 206.979 673.472 200.607C697.732 194.862 718.292 194.769 740.929 194.439C751.218 194.305 761.9 193.856 773.72 192.899C779.929 192.451 786.404 191.763 793.007 191C812.928 188.808 835.081 186.041 853.981 185.607C873.25 185.121 887.239 186.68 897.101 185.973C900.145 185.743 902.566 185.716 904.686 186.28C917.754 186.155 917.816 205.098 936.784 199.096C950.518 199.568 969.907 205.2 991.102 217.028C1001.3 222.725 1012.2 229.82 1022.74 238.205C1051.42 261.126 1058.78 283.269 1069.66 297.971C1070.94 299.69 1072.23 301.322 1073.65 302.878C1083.76 314.319 1096.96 322.614 1109.44 337.032C1110.63 338.389 1111.82 339.834 1113.13 341.29C1123.73 353.842 1134.36 371.086 1151.38 386.041C1166.63 399.317 1187.73 407.241 1208.17 414.394C1222.31 419.33 1236.7 424.202 1251.73 428.696C1306.67 445.273 1366.56 456.941 1421.35 475.008C1476.02 493.062 1527.18 520.859 1552.96 553.582" stroke="url(#paint14_linear_467_16211)" stroke-miterlimit="10"/>
<path opacity="0.6429" d="M41.3648 55.0709C90.7005 56.1393 138.986 70.2892 182.149 91.0126C211.346 105.047 237.974 121.836 266.051 136.202C283.426 145.086 301.496 153.066 320.183 159.69C341.092 167.065 362.406 172.799 383.786 180.309C398.976 185.615 413.362 191.726 427.491 197.989C446.826 206.624 466.228 215.797 485.599 222.843C511.158 232.093 538.457 238.418 564.818 235.889C573.97 235.024 582.977 233.17 591.832 230.417C620.492 221.744 644.808 205.651 672.54 200.249C697.065 195.504 718.058 197.135 740.797 198.231C751.144 198.722 761.885 198.898 773.773 198.48C779.965 198.206 786.414 197.782 793 197.193C812.877 195.44 834.432 192.614 853.051 191.356C872.038 190.046 886.294 190.127 896.516 188.216C899.724 187.56 902.452 188.094 904.436 187.583C917.67 184.554 916.733 202.602 938.505 197.585C952.483 194.364 973.77 200.361 995.556 211.096C1006.04 216.292 1017.1 223.047 1027.65 231.258C1056.5 253.752 1061.42 276.096 1070.01 291.988C1071.03 293.859 1072.06 295.642 1073.11 297.338C1081.28 310.004 1093.09 320.197 1103.79 335.5C1104.86 336.933 1105.79 338.442 1106.97 339.974C1116.07 353.085 1125.87 370.159 1143.03 384.862C1158.63 398.261 1180.6 405.918 1201.8 412.879C1216.43 417.687 1231.32 422.344 1246.72 426.785C1303.03 442.878 1363.85 454.992 1419.58 473.329C1475.2 491.566 1527.12 519.083 1555.89 552.101" stroke="url(#paint15_linear_467_16211)" stroke-miterlimit="10"/>
<path opacity="0.619" d="M40.1634 58.6689C89.4053 59.4625 137.88 72.9232 180.949 93.3718C210.172 107.143 236.561 123.909 264.492 138.526C281.739 147.486 299.552 155.617 318.084 162.58C338.72 170.282 359.862 176.53 381.113 184.115C396.175 189.497 410.698 195.445 424.845 201.532C444.325 209.916 464.138 218.599 483.928 225.067C510.036 233.664 537.67 239.048 563.98 235.807C573.038 234.666 581.952 232.538 590.696 229.685C618.929 220.439 643.227 204.521 671.693 200.254C696.482 196.508 717.79 199.852 740.86 202.485C751.258 203.689 762.178 204.502 773.903 204.51C780.189 204.511 786.5 204.25 792.949 203.825C812.663 202.498 833.739 199.625 852.077 197.543C870.775 195.496 885.306 194.011 895.769 190.886C899.131 189.89 901.834 189.449 904.152 189.236C919.265 187.986 917.348 203.725 940.302 196.524C955.025 191.872 977.718 195.883 1000.21 205.627C1011.1 210.332 1022.32 216.749 1032.77 224.772C1061.77 246.928 1064.26 269.386 1070.43 286.455C1071.2 288.478 1071.86 290.401 1072.75 292.348C1079 306.238 1089.29 318.316 1098.21 334.419C1099.03 335.916 1099.96 337.512 1100.89 339.108C1108.62 352.702 1117.58 369.693 1134.65 384.122C1150.72 397.656 1173.43 405.121 1195.26 411.79C1210.28 416.371 1225.66 420.9 1241.56 425.213C1299.36 440.923 1360.99 453.382 1417.66 471.988C1474.22 490.495 1526.91 517.558 1558.66 550.959" stroke="url(#paint16_linear_467_16211)" stroke-miterlimit="10"/>
<path opacity="0.5952" d="M39.0812 62.2787C88.1096 62.7858 136.893 75.569 179.997 95.6671C209.117 109.251 235.506 126.017 263.189 140.698C280.308 149.734 297.983 158.028 316.251 165.231C336.612 173.26 357.582 180.021 378.705 187.683C393.639 193.14 408.171 199 422.463 204.837C442.217 212.894 462.322 221.075 482.523 227.052C509.179 234.995 537.139 239.527 563.416 235.397C572.5 233.994 581.2 231.579 589.961 228.551C617.887 218.743 642.048 202.989 671.258 199.768C696.31 197.022 718.052 202.09 741.223 206.149C751.8 207.99 762.651 209.504 774.443 210.05C780.703 210.314 786.998 210.228 793.429 209.979C812.971 209.166 833.577 206.157 851.625 203.338C869.922 200.456 884.712 197.581 895.672 193.088C899.197 191.667 902.055 190.887 904.39 190.498C920.257 187.73 918.604 204.468 942.629 194.984C958.347 188.837 982.188 191.015 1005.27 199.667C1016.46 203.869 1027.82 209.948 1038.29 217.796C1067.44 239.613 1067.39 262.173 1071.39 280.444C1071.9 282.618 1072.3 284.693 1072.94 286.791C1077.25 301.907 1086.14 315.882 1093.29 332.871C1093.98 334.443 1094.66 336.103 1095.46 337.775C1101.8 351.941 1109.93 368.761 1127.03 382.927C1143.45 396.584 1167.15 403.793 1189.61 410.171C1205.13 414.624 1221.02 418.937 1237.17 423.099C1296.46 438.424 1358.89 451.317 1416.51 470.105C1473.89 488.87 1527.46 515.577 1562.22 549.187" stroke="url(#paint17_linear_467_16211)" stroke-miterlimit="10"/>
<path opacity="0.5714" d="M37.8883 65.789C86.7033 66.0095 135.795 78.1153 178.805 97.9386C207.943 111.348 234.093 128.089 261.518 142.922C278.509 152.034 295.928 160.48 314.041 168.021C334.248 176.389 354.927 183.653 375.793 191.466C390.599 196.999 405.148 202.684 419.577 208.357C439.477 216.163 459.992 223.853 480.605 229.34C507.937 236.554 536.103 240.221 562.33 235.378C571.32 233.7 580.046 231.022 588.577 227.883C616.075 217.502 640.228 201.836 670.172 199.75C695.488 198.003 717.544 204.783 740.927 210.367C751.555 212.921 762.464 215.061 774.214 216.045C780.448 216.572 786.836 216.761 793.139 216.587C812.518 216.2 832.645 213.144 850.412 209.502C868.427 205.795 883.364 201.43 894.686 195.734C898.374 193.886 901.257 192.844 903.738 192.204C920.36 187.917 918.988 205.48 944.068 193.887C960.788 186.158 985.657 186.491 1009.55 194.249C1021.15 197.962 1032.67 203.701 1043.05 211.274C1072.35 232.753 1069.87 255.427 1071.46 274.875C1071.59 277.189 1071.85 279.427 1072.24 281.678C1074.73 298.03 1081.99 313.879 1087.36 331.666C1087.93 333.314 1088.36 335.038 1089.03 336.786C1093.99 351.435 1101.29 368.172 1118.29 382.064C1135.18 395.856 1159.63 402.873 1182.84 408.971C1198.86 413.208 1215.13 417.382 1231.78 421.415C1292.45 436.257 1355.8 449.595 1414.36 468.654C1472.68 487.689 1527.02 513.941 1564.88 547.945" stroke="url(#paint18_linear_467_16211)" stroke-miterlimit="10"/>
<path opacity="0.5476" d="M36.6866 69.387C85.2882 69.321 134.688 80.7493 177.733 100.222C206.889 113.456 232.927 130.098 260.096 145.082C276.839 154.258 294.24 162.88 312.079 170.748C332.012 179.442 352.519 187.22 373.257 195.109C387.934 200.718 402.492 206.315 417.067 211.737C437.121 219.205 458.039 226.492 479.071 231.401C506.952 237.961 535.444 240.775 561.629 235.132C570.645 233.191 579.149 230.314 587.586 226.9C614.649 216.034 638.793 200.455 669.479 199.416C695.068 198.581 717.43 207.161 741.034 214.183C751.72 217.362 762.8 220.227 774.506 221.649C780.714 222.439 787.085 222.803 793.371 222.804C812.707 222.856 832.235 219.741 849.721 215.274C867.446 210.83 882.53 204.975 894.349 197.913C898.081 195.627 901.238 194.258 903.865 193.367C921.25 187.474 920.27 205.96 946.276 192.335C963.998 183.024 990.015 181.524 1014.49 188.278C1026.38 191.488 1038.07 196.801 1048.45 204.287C1077.92 225.339 1073 248.215 1072.29 268.852C1072.17 271.318 1072.18 273.707 1072.18 276.097C1072.75 293.586 1078.6 311.421 1082.2 330.094C1082.51 331.894 1082.94 333.618 1083.37 335.43C1086.95 350.562 1093.4 367.217 1110.43 380.845C1127.67 394.76 1152.99 401.509 1176.96 407.328C1193.48 411.35 1210.25 415.395 1227.27 419.289C1289.43 433.747 1353.6 447.431 1413.1 466.759C1472.36 485.976 1527.46 511.949 1568.32 546.249" stroke="url(#paint19_linear_467_16211)" stroke-miterlimit="10"/>
<path opacity="0.5238" d="M35.4938 72.8974C83.8819 72.5448 133.6 83.208 176.551 102.406C205.723 115.464 231.522 132.083 258.554 147.231C275.16 156.57 292.313 165.255 310.007 173.375C329.666 182.396 350.001 190.688 370.602 198.74C385.151 204.425 399.726 209.847 414.437 215.105C434.637 222.322 455.975 229.031 477.41 233.538C505.839 239.444 534.665 241.318 560.689 234.862C569.611 232.646 578.141 229.507 586.467 225.993C613.223 214.566 637.238 199.063 668.65 199.245C694.631 199.334 717.299 209.715 741.115 218.262C751.971 222.166 762.999 225.556 774.773 227.516C781.075 228.58 787.309 229.108 793.577 229.285C812.742 229.85 831.68 226.589 848.995 221.397C866.311 216.205 881.662 208.872 893.851 200.519C897.736 197.894 900.928 196.174 903.701 195.032C921.592 187.684 921.15 206.844 948.202 191.198C967.055 180.229 994.092 176.971 1019.27 182.732C1031.45 185.528 1043.41 190.427 1053.81 197.737C1083.44 218.45 1076.09 241.44 1073.09 263.267C1072.71 265.884 1072.46 268.426 1072.21 270.967C1070.84 289.681 1075.31 309.325 1077 328.872C1077.18 330.748 1077.37 332.536 1077.66 334.424C1079.86 350.127 1085.48 366.611 1102.41 380.053C1120.12 394.103 1146.2 400.573 1170.91 406.199C1187.93 410.093 1205.2 413.923 1222.47 417.753C1286.11 431.827 1351.09 445.856 1411.53 465.454C1471.74 484.941 1527.61 510.459 1571.45 545.143" stroke="url(#paint20_linear_467_16211)" stroke-miterlimit="10"/>
<path opacity="0.5" d="M34.4121 76.5072C82.7064 75.8798 132.613 85.8538 175.47 104.777C204.669 117.573 230.34 134.267 257.115 149.567C304.957 176.77 357.054 200.057 411.791 218.649C459.398 234.767 514.236 247.441 559.851 234.779C597.509 224.341 625.798 197.402 667.821 199.075C705.987 200.633 737.249 225.579 774.809 233.271C819.714 242.485 863.718 225.329 893.129 202.925C922.541 180.522 917.554 210.205 949.905 189.862C979.68 171.122 1027.01 169.249 1058.71 190.964C1091.99 213.809 1075.88 239.915 1071.65 265.602C1068.35 285.541 1071.3 307.071 1071.34 327.428C1071.37 345.484 1075.09 364.169 1093.94 378.95C1112.12 393.135 1138.94 399.413 1164.4 404.76C1310.06 435.431 1467.54 463.819 1574.26 543.562" stroke="url(#paint21_linear_467_16211)" stroke-miterlimit="10"/>
</g>
<defs>
<linearGradient id="paint0_linear_467_16211" x1="51.8846" y1="16.7465" x2="1476.06" y2="652.545" gradientUnits="userSpaceOnUse">
<stop offset="0.0255456" stop-color="#7C61FF"/>
<stop offset="0.1298" stop-color="#52ABFF"/>
<stop offset="0.1553" stop-color="#5AA2FF"/>
<stop offset="0.1977" stop-color="#6E88FF"/>
<stop offset="0.2518" stop-color="#8F5FFF"/>
<stop offset="0.3149" stop-color="#BD26FF"/>
<stop offset="0.3528" stop-color="#DB00FF"/>
<stop offset="0.6209" stop-color="#9F1EE9"/>
<stop offset="0.9003" stop-color="#50ABFF"/>
<stop offset="1" stop-color="#7A61FF"/>
</linearGradient>
<linearGradient id="paint1_linear_467_16211" x1="51.4481" y1="18.6774" x2="1477.1" y2="655.136" gradientUnits="userSpaceOnUse">
<stop offset="0.0255456" stop-color="#7C61FF"/>
<stop offset="0.1298" stop-color="#52ABFF"/>
<stop offset="0.1553" stop-color="#5AA2FF"/>
<stop offset="0.1977" stop-color="#6E88FF"/>
<stop offset="0.2518" stop-color="#8F5FFF"/>
<stop offset="0.3149" stop-color="#BD26FF"/>
<stop offset="0.3528" stop-color="#DB00FF"/>
<stop offset="0.6209" stop-color="#9F1EE9"/>
<stop offset="0.9003" stop-color="#50ABFF"/>
<stop offset="1" stop-color="#7A61FF"/>
</linearGradient>
<linearGradient id="paint2_linear_467_16211" x1="51.0088" y1="20.6151" x2="1478.3" y2="657.802" gradientUnits="userSpaceOnUse">
<stop offset="0.0255456" stop-color="#7C61FF"/>
<stop offset="0.1298" stop-color="#52ABFF"/>
<stop offset="0.1553" stop-color="#5AA2FF"/>
<stop offset="0.1977" stop-color="#6E88FF"/>
<stop offset="0.2518" stop-color="#8F5FFF"/>
<stop offset="0.3149" stop-color="#BD26FF"/>
<stop offset="0.3528" stop-color="#DB00FF"/>
<stop offset="0.6209" stop-color="#9F1EE9"/>
<stop offset="0.9003" stop-color="#50ABFF"/>
<stop offset="1" stop-color="#7A61FF"/>
</linearGradient>
<linearGradient id="paint3_linear_467_16211" x1="50.5732" y1="22.5435" x2="1479.5" y2="660.462" gradientUnits="userSpaceOnUse">
<stop offset="0.0255456" stop-color="#7C61FF"/>
<stop offset="0.1298" stop-color="#52ABFF"/>
<stop offset="0.1553" stop-color="#5AA2FF"/>
<stop offset="0.1977" stop-color="#6E88FF"/>
<stop offset="0.2518" stop-color="#8F5FFF"/>
<stop offset="0.3149" stop-color="#BD26FF"/>
<stop offset="0.3528" stop-color="#DB00FF"/>
<stop offset="0.6209" stop-color="#9F1EE9"/>
<stop offset="0.9003" stop-color="#50ABFF"/>
<stop offset="1" stop-color="#7A61FF"/>
</linearGradient>
<linearGradient id="paint4_linear_467_16211" x1="50.1471" y1="24.4513" x2="1480.71" y2="663.1" gradientUnits="userSpaceOnUse">
<stop offset="0.0255456" stop-color="#7C61FF"/>
<stop offset="0.1298" stop-color="#52ABFF"/>
<stop offset="0.1553" stop-color="#5AA2FF"/>
<stop offset="0.1977" stop-color="#6E88FF"/>
<stop offset="0.2518" stop-color="#8F5FFF"/>
<stop offset="0.3149" stop-color="#BD26FF"/>
<stop offset="0.3528" stop-color="#DB00FF"/>
<stop offset="0.6209" stop-color="#9F1EE9"/>
<stop offset="0.9003" stop-color="#50ABFF"/>
<stop offset="1" stop-color="#7A61FF"/>
</linearGradient>
<linearGradient id="paint5_linear_467_16211" x1="49.7326" y1="26.3329" x2="1481.93" y2="665.711" gradientUnits="userSpaceOnUse">
<stop offset="0.0255456" stop-color="#7C61FF"/>
<stop offset="0.1298" stop-color="#52ABFF"/>
<stop offset="0.1553" stop-color="#5AA2FF"/>
<stop offset="0.1977" stop-color="#6E88FF"/>
<stop offset="0.2518" stop-color="#8F5FFF"/>
<stop offset="0.3149" stop-color="#BD26FF"/>
<stop offset="0.3528" stop-color="#DB00FF"/>
<stop offset="0.6209" stop-color="#9F1EE9"/>
<stop offset="0.9003" stop-color="#50ABFF"/>
<stop offset="1" stop-color="#7A61FF"/>
</linearGradient>
<linearGradient id="paint6_linear_467_16211" x1="49.3305" y1="28.1863" x2="1483.16" y2="668.292" gradientUnits="userSpaceOnUse">
<stop offset="0.0255456" stop-color="#7C61FF"/>
<stop offset="0.1298" stop-color="#52ABFF"/>
<stop offset="0.1553" stop-color="#5AA2FF"/>
<stop offset="0.1977" stop-color="#6E88FF"/>
<stop offset="0.2518" stop-color="#8F5FFF"/>
<stop offset="0.3149" stop-color="#BD26FF"/>
<stop offset="0.3528" stop-color="#DB00FF"/>
<stop offset="0.6209" stop-color="#9F1EE9"/>
<stop offset="0.9003" stop-color="#50ABFF"/>
<stop offset="1" stop-color="#7A61FF"/>
</linearGradient>
<linearGradient id="paint7_linear_467_16211" x1="48.9469" y1="29.9991" x2="1484.4" y2="670.831" gradientUnits="userSpaceOnUse">
<stop offset="0.0255456" stop-color="#7C61FF"/>
<stop offset="0.1298" stop-color="#52ABFF"/>
<stop offset="0.1553" stop-color="#5AA2FF"/>
<stop offset="0.1977" stop-color="#6E88FF"/>
<stop offset="0.2518" stop-color="#8F5FFF"/>
<stop offset="0.3149" stop-color="#BD26FF"/>
<stop offset="0.3528" stop-color="#DB00FF"/>
<stop offset="0.6209" stop-color="#9F1EE9"/>
<stop offset="0.9003" stop-color="#50ABFF"/>
<stop offset="1" stop-color="#7A61FF"/>
</linearGradient>
<linearGradient id="paint8_linear_467_16211" x1="48.5863" y1="31.7591" x2="1485.66" y2="673.317" gradientUnits="userSpaceOnUse">
<stop offset="0.0255456" stop-color="#7C61FF"/>
<stop offset="0.1298" stop-color="#52ABFF"/>
<stop offset="0.1553" stop-color="#5AA2FF"/>
<stop offset="0.1977" stop-color="#6E88FF"/>
<stop offset="0.2518" stop-color="#8F5FFF"/>
<stop offset="0.3149" stop-color="#BD26FF"/>
<stop offset="0.3528" stop-color="#DB00FF"/>
<stop offset="0.6209" stop-color="#9F1EE9"/>
<stop offset="0.9003" stop-color="#50ABFF"/>
<stop offset="1" stop-color="#7A61FF"/>
</linearGradient>
<linearGradient id="paint9_linear_467_16211" x1="48.2573" y1="33.4493" x2="1486.96" y2="675.732" gradientUnits="userSpaceOnUse">
<stop offset="0.0255456" stop-color="#7C61FF"/>
<stop offset="0.1298" stop-color="#52ABFF"/>
<stop offset="0.1553" stop-color="#5AA2FF"/>
<stop offset="0.1977" stop-color="#6E88FF"/>
<stop offset="0.2518" stop-color="#8F5FFF"/>
<stop offset="0.3149" stop-color="#BD26FF"/>
<stop offset="0.3528" stop-color="#DB00FF"/>
<stop offset="0.6209" stop-color="#9F1EE9"/>
<stop offset="0.9003" stop-color="#50ABFF"/>
<stop offset="1" stop-color="#7A61FF"/>
</linearGradient>
<linearGradient id="paint10_linear_467_16211" x1="47.9728" y1="35.0389" x2="1488.3" y2="678.046" gradientUnits="userSpaceOnUse">
<stop offset="0.0255456" stop-color="#7C61FF"/>
<stop offset="0.1298" stop-color="#52ABFF"/>
<stop offset="0.1553" stop-color="#5AA2FF"/>
<stop offset="0.1977" stop-color="#6E88FF"/>
<stop offset="0.2518" stop-color="#8F5FFF"/>
<stop offset="0.3149" stop-color="#BD26FF"/>
<stop offset="0.3528" stop-color="#DB00FF"/>
<stop offset="0.6209" stop-color="#9F1EE9"/>
<stop offset="0.9003" stop-color="#50ABFF"/>
<stop offset="1" stop-color="#7A61FF"/>
</linearGradient>
<linearGradient id="paint11_linear_467_16211" x1="47.7649" y1="36.4572" x2="1489.71" y2="680.189" gradientUnits="userSpaceOnUse">
<stop offset="0.0255456" stop-color="#7C61FF"/>
<stop offset="0.1298" stop-color="#52ABFF"/>
<stop offset="0.1553" stop-color="#5AA2FF"/>
<stop offset="0.1977" stop-color="#6E88FF"/>
<stop offset="0.2518" stop-color="#8F5FFF"/>
<stop offset="0.3149" stop-color="#BD26FF"/>
<stop offset="0.3528" stop-color="#DB00FF"/>
<stop offset="0.6209" stop-color="#9F1EE9"/>
<stop offset="0.9003" stop-color="#50ABFF"/>
<stop offset="1" stop-color="#7A61FF"/>
</linearGradient>
<linearGradient id="paint12_linear_467_16211" x1="47.8614" y1="37.1936" x2="1491.43" y2="681.649" gradientUnits="userSpaceOnUse">
<stop offset="0.0255456" stop-color="#7C61FF"/>
<stop offset="0.1298" stop-color="#52ABFF"/>
<stop offset="0.1553" stop-color="#5AA2FF"/>
<stop offset="0.1977" stop-color="#6E88FF"/>
<stop offset="0.2518" stop-color="#8F5FFF"/>
<stop offset="0.3149" stop-color="#BD26FF"/>
<stop offset="0.3528" stop-color="#DB00FF"/>
<stop offset="0.6209" stop-color="#9F1EE9"/>
<stop offset="0.9003" stop-color="#50ABFF"/>
<stop offset="1" stop-color="#7A61FF"/>
</linearGradient>
<linearGradient id="paint13_linear_467_16211" x1="48.341" y1="37.0721" x2="1493.53" y2="682.252" gradientUnits="userSpaceOnUse">
<stop offset="0.0255456" stop-color="#7C61FF"/>
<stop offset="0.1298" stop-color="#52ABFF"/>
<stop offset="0.1553" stop-color="#5AA2FF"/>
<stop offset="0.1977" stop-color="#6E88FF"/>
<stop offset="0.2518" stop-color="#8F5FFF"/>
<stop offset="0.3149" stop-color="#BD26FF"/>
<stop offset="0.3528" stop-color="#DB00FF"/>
<stop offset="0.6209" stop-color="#9F1EE9"/>
<stop offset="0.9003" stop-color="#50ABFF"/>
<stop offset="1" stop-color="#7A61FF"/>
</linearGradient>
<linearGradient id="paint14_linear_467_16211" x1="48.9373" y1="36.6888" x2="1495.75" y2="682.593" gradientUnits="userSpaceOnUse">
<stop offset="0.0255456" stop-color="#7C61FF"/>
<stop offset="0.1298" stop-color="#52ABFF"/>
<stop offset="0.1553" stop-color="#5AA2FF"/>
<stop offset="0.1977" stop-color="#6E88FF"/>
<stop offset="0.2518" stop-color="#8F5FFF"/>
<stop offset="0.3149" stop-color="#BD26FF"/>
<stop offset="0.3528" stop-color="#DB00FF"/>
<stop offset="0.6209" stop-color="#9F1EE9"/>
<stop offset="0.9003" stop-color="#50ABFF"/>
<stop offset="1" stop-color="#7A61FF"/>
</linearGradient>
<linearGradient id="paint15_linear_467_16211" x1="50.4298" y1="34.2983" x2="1498.87" y2="680.927" gradientUnits="userSpaceOnUse">
<stop offset="0.0255456" stop-color="#7C61FF"/>
<stop offset="0.1298" stop-color="#52ABFF"/>
<stop offset="0.1553" stop-color="#5AA2FF"/>
<stop offset="0.1977" stop-color="#6E88FF"/>
<stop offset="0.2518" stop-color="#8F5FFF"/>
<stop offset="0.3149" stop-color="#BD26FF"/>
<stop offset="0.3528" stop-color="#DB00FF"/>
<stop offset="0.6209" stop-color="#9F1EE9"/>
<stop offset="0.9003" stop-color="#50ABFF"/>
<stop offset="1" stop-color="#7A61FF"/>
</linearGradient>
<linearGradient id="paint16_linear_467_16211" x1="52.3258" y1="31.0041" x2="1502.39" y2="678.358" gradientUnits="userSpaceOnUse">
<stop offset="0.0255456" stop-color="#7C61FF"/>
<stop offset="0.1298" stop-color="#52ABFF"/>
<stop offset="0.1553" stop-color="#5AA2FF"/>
<stop offset="0.1977" stop-color="#6E88FF"/>
<stop offset="0.2518" stop-color="#8F5FFF"/>
<stop offset="0.3149" stop-color="#BD26FF"/>
<stop offset="0.3528" stop-color="#DB00FF"/>
<stop offset="0.6209" stop-color="#9F1EE9"/>
<stop offset="0.9003" stop-color="#50ABFF"/>
<stop offset="1" stop-color="#7A61FF"/>
</linearGradient>
<linearGradient id="paint17_linear_467_16211" x1="54.365" y1="27.3878" x2="1506.05" y2="675.466" gradientUnits="userSpaceOnUse">
<stop offset="0.0255456" stop-color="#7C61FF"/>
<stop offset="0.1298" stop-color="#52ABFF"/>
<stop offset="0.1553" stop-color="#5AA2FF"/>
<stop offset="0.1977" stop-color="#6E88FF"/>
<stop offset="0.2518" stop-color="#8F5FFF"/>
<stop offset="0.3149" stop-color="#BD26FF"/>
<stop offset="0.3528" stop-color="#DB00FF"/>
<stop offset="0.6209" stop-color="#9F1EE9"/>
<stop offset="0.9003" stop-color="#50ABFF"/>
<stop offset="1" stop-color="#7A61FF"/>
</linearGradient>
<linearGradient id="paint18_linear_467_16211" x1="56.5053" y1="23.5462" x2="1509.81" y2="672.35" gradientUnits="userSpaceOnUse">
<stop offset="0.0255456" stop-color="#7C61FF"/>
<stop offset="0.1298" stop-color="#52ABFF"/>
<stop offset="0.1553" stop-color="#5AA2FF"/>
<stop offset="0.1977" stop-color="#6E88FF"/>
<stop offset="0.2518" stop-color="#8F5FFF"/>
<stop offset="0.3149" stop-color="#BD26FF"/>
<stop offset="0.3528" stop-color="#DB00FF"/>
<stop offset="0.6209" stop-color="#9F1EE9"/>
<stop offset="0.9003" stop-color="#50ABFF"/>
<stop offset="1" stop-color="#7A61FF"/>
</linearGradient>
<linearGradient id="paint19_linear_467_16211" x1="58.7142" y1="19.5504" x2="1513.65" y2="669.081" gradientUnits="userSpaceOnUse">
<stop offset="0.0255456" stop-color="#7C61FF"/>
<stop offset="0.1298" stop-color="#52ABFF"/>
<stop offset="0.1553" stop-color="#5AA2FF"/>
<stop offset="0.1977" stop-color="#6E88FF"/>
<stop offset="0.2518" stop-color="#8F5FFF"/>
<stop offset="0.3149" stop-color="#BD26FF"/>
<stop offset="0.3528" stop-color="#DB00FF"/>
<stop offset="0.6209" stop-color="#9F1EE9"/>
<stop offset="0.9003" stop-color="#50ABFF"/>
<stop offset="1" stop-color="#7A61FF"/>
</linearGradient>
<linearGradient id="paint20_linear_467_16211" x1="60.9712" y1="15.4473" x2="1517.53" y2="665.704" gradientUnits="userSpaceOnUse">
<stop offset="0.0255456" stop-color="#7C61FF"/>
<stop offset="0.1298" stop-color="#52ABFF"/>
<stop offset="0.1553" stop-color="#5AA2FF"/>
<stop offset="0.1977" stop-color="#6E88FF"/>
<stop offset="0.2518" stop-color="#8F5FFF"/>
<stop offset="0.3149" stop-color="#BD26FF"/>
<stop offset="0.3528" stop-color="#DB00FF"/>
<stop offset="0.6209" stop-color="#9F1EE9"/>
<stop offset="0.9003" stop-color="#50ABFF"/>
<stop offset="1" stop-color="#7A61FF"/>
</linearGradient>
<linearGradient id="paint21_linear_467_16211" x1="62.4871" y1="13.0043" x2="1520.68" y2="663.988" gradientUnits="userSpaceOnUse">
<stop offset="0.0255456" stop-color="#7C61FF"/>
<stop offset="0.1298" stop-color="#52ABFF"/>
<stop offset="0.1553" stop-color="#5AA2FF"/>
<stop offset="0.1977" stop-color="#6E88FF"/>
<stop offset="0.2518" stop-color="#8F5FFF"/>
<stop offset="0.3149" stop-color="#BD26FF"/>
<stop offset="0.3528" stop-color="#DB00FF"/>
<stop offset="0.6209" stop-color="#9F1EE9"/>
<stop offset="0.9003" stop-color="#50ABFF"/>
<stop offset="1" stop-color="#7A61FF"/>
</linearGradient>
</defs>
</svg>
