<svg width="1017" height="1326" viewBox="0 0 1017 1326" fill="none" xmlns="http://www.w3.org/2000/svg">
<g opacity="0.2" filter="url(#filter0_f_109_1550)">
<path d="M312.387 257.659C294.138 257.659 277.104 256.4 259.053 253.717L255.11 257.659C255.11 257.659 252.527 250.257 249.634 247.365C241.563 239.293 234.813 268.937 233.316 272.991C213.828 325.772 194 384.296 194 441.209C194 451.562 199.423 463.487 201.885 473.406C207.252 495.026 212.31 516.724 217.656 538.35C230.499 590.307 245.463 640.911 264.529 690.906C271.1 708.138 277.027 725.224 282.818 742.597C288.916 760.891 304.235 777.277 319.068 788.813C357.115 818.406 408.537 836.178 454.539 848.062C486.817 856.4 517.306 861.491 550.695 860.766C566.948 860.412 584.676 860.806 600.087 854.961C617.733 848.268 629.205 836.451 634.475 818.164C653.292 752.856 600.474 700.895 552.556 666.046C528.632 648.646 513.758 617.461 498.674 592.779C488.316 575.829 475.645 563.671 463.082 548.315C440.557 520.786 435.366 476.508 442.821 442.961C452.443 399.66 472.722 359.661 482.247 316.798C484.564 306.37 487.285 286.571 479.4 277.81C466.72 263.722 442.765 259.63 424.641 259.63C401.419 259.63 374.982 263.165 352.142 259.192C339.034 256.913 325.702 257.659 312.387 257.659Z" fill="#EA27DD"/>
<path d="M409.194 336.296C403.07 334.934 397.725 325.132 394.864 316.233L392.648 313.131C393.17 313.392 393.684 313.682 394.192 314C393.202 310.459 392.648 307.201 392.648 304.858C392.648 290.378 396.402 278.866 399.451 265.148C408.09 226.269 469.339 211.849 500.197 202.457C519.292 196.645 540.258 194 560.131 194C583.666 194 602.952 205.165 624.476 210.546C638.141 213.962 658.853 231.87 668.966 241.983C683.794 256.811 688.265 272.895 697.095 291.438C716.591 332.381 704.704 386.077 703.713 429.688C703.028 459.845 696.232 503.364 707.758 531.538C714.459 547.919 723.365 564.009 729.451 580.441C734.323 593.594 743.343 637.1 766.588 626.77C782.319 619.778 787.13 638.646 795.635 648.096C801.179 654.255 798.295 662.146 801.518 669.054C804.492 675.427 809.23 686.522 809.607 693.689C811.014 720.41 824.419 746.338 822.844 773.11C822.57 777.777 799.469 788.67 794.716 791.31C777.093 801.101 756.407 803.514 738.46 812.82C702.049 831.699 659.096 822.702 622.822 809.511C607.154 803.814 598.003 793.32 584.582 784.692C573.414 777.512 553.189 758.297 546.526 746.452C537.318 730.082 521.51 716.494 515.089 698.837C510.645 686.615 502.136 670.161 495.05 658.942C476.801 630.048 452.214 589.04 452.214 554.703C452.214 522.051 445.596 489.28 445.596 456.162C445.596 428.196 434.089 400.505 425.005 375.271C419.036 358.691 409.502 323.59 394.192 314C394.398 314.734 394.622 315.48 394.864 316.233L409.194 336.296Z" fill="#50ABFF"/>
<path d="M321.982 762.696C300.788 749.654 247.099 749.974 247.099 783.852L241.055 780.83C241.055 815.561 246.908 845.847 252.976 879.219C255.562 893.443 255.263 909.936 256.334 924.384C258.363 951.786 267.413 978.776 272.788 1005.65C282.858 1056 326.745 1090.94 370.169 1113.27C405.357 1131.37 450.186 1131.4 488.706 1131.4C524.572 1131.4 563.282 1129.95 598.681 1123.85C635.067 1117.57 663.119 1100.4 695.894 1084.73C731.543 1067.68 760.367 1055.4 753.316 1011.69C747.18 973.65 738.921 934.167 711.005 906.251L710.369 905.614C695.441 890.683 679.087 874.326 658.789 867.802C647.851 864.286 641.617 868.473 630.917 868.473C601.087 868.473 573.049 880.562 543.274 880.562C525.835 880.562 509.099 873.407 491.897 871.495C471.98 869.282 454.485 846.745 437.497 838.251C414.971 826.988 388.898 810.807 371.009 792.918C356.553 778.462 338.631 772.942 321.982 762.696Z" fill="#9F1DE9"/>
</g>
<defs>
<filter id="filter0_f_109_1550" x="0" y="0" width="1016.97" height="1325.4" filterUnits="userSpaceOnUse" color-interpolation-filters="sRGB">
<feFlood flood-opacity="0" result="BackgroundImageFix"/>
<feBlend mode="normal" in="SourceGraphic" in2="BackgroundImageFix" result="shape"/>
<feGaussianBlur stdDeviation="97" result="effect1_foregroundBlur_109_1550"/>
</filter>
</defs>
</svg>
