<?xml version="1.0" encoding="UTF-8"?>
<svg width="326px" height="120px" viewBox="0 0 326 120" version="1.1" xmlns="http://www.w3.org/2000/svg" xmlns:xlink="http://www.w3.org/1999/xlink">
    <title>Group 2</title>
    <defs>
        <rect id="path-1" x="0" y="0" width="364" height="120"></rect>
    </defs>
    <g id="Page-1" stroke="none" stroke-width="1" fill="none" fill-rule="evenodd">
        <g id="Group-2" transform="translate(-18.000000, 0.000000)">
            <mask id="mask-2" fill="white">
                <use xlink:href="#path-1"></use>
            </mask>
            <g id="Rectangle"></g>
            <g id="Group" mask="url(#mask-2)" opacity="0.5">
                <g transform="translate(20.000000, -1.000000)">
                    <g>
                        <path d="M13.4477998,0.470795 L13.4477998,12.5702 C13.4477998,12.5702 13.4477998,15.5833 15.6010998,17.4194 C17.7543998,19.2555 21.2880998,19.2555 20.5702998,25.8937 C19.9077998,31.967 18.6930998,48.1623 18.4721998,50.94 C18.4721998,51.1754 18.2513998,51.3166 17.9752998,51.3166 L17.7543998,51.3166 C17.4783998,51.3166 17.2574998,51.1283 17.2574998,50.8929 L16.6501998,32.7673 C16.6501998,32.2965 16.2084998,31.9199 15.6010998,31.9199 C15.0489998,31.9199 14.6071998,32.2965 14.5519998,32.7673 L13.9446998,50.8929 C13.9446998,51.1283 13.7237998,51.3166 13.4477998,51.3166 L12.7299998,51.3166 C12.4538998,51.3166 12.2330998,51.1283 12.2330998,50.8929 L11.6256998,32.7673 C11.6256998,32.2965 11.1839998,31.9199 10.5766998,31.9199 C10.0244998,31.9199 9.58281985,32.2965 9.52760985,32.7673 L8.92024985,50.8929 C8.92024985,51.1283 8.69939985,51.3166 8.42332985,51.3166 L7.70554985,51.3166 C7.42947985,51.3166 7.20862985,51.1283 7.20862985,50.8929 L6.60126985,32.7673 C6.60126985,32.2965 6.15956985,31.9199 5.55221985,31.9199 C5.00007985,31.9199 4.55837985,32.2965 4.50315985,32.7673 L3.89580985,50.8929 C3.89580985,51.1283 3.67495985,51.3166 3.39888985,51.3166 L3.12281985,51.3166 C2.84674985,51.3166 2.62589985,51.1283 2.62589985,50.94 C2.40504985,48.2094 1.19033985,32.0141 0.527775847,25.8937 C-0.190002153,19.2555 3.34366985,19.2555 5.49699985,17.4194 C7.65032985,15.5833 7.65032985,12.5702 7.65032985,12.5702 L7.65032985,0.470795 L13.4477998,0.470795 Z M13.9998998,0 L13.4477998,0 L7.76075985,0 L7.20862985,0 L7.20862985,0.470795 L7.20862985,12.5702 C7.20862985,12.6173 7.15340985,15.4421 5.22092985,17.0899 C4.77921985,17.4665 4.28230985,17.749 3.73017985,18.0785 C1.74248985,19.2084 -0.466063153,20.4796 0.0860731472,25.9408 C0.748636847,31.967 1.96332985,47.8328 2.18417985,50.94 C2.23939985,51.4108 2.68109985,51.7874 3.23323985,51.7874 L3.50930985,51.7874 C4.06143985,51.7874 4.55837985,51.4108 4.55837985,50.8929 L5.16571985,32.7673 C5.16571985,32.5319 5.38657985,32.3907 5.66264985,32.3907 C5.93871985,32.3907 6.15956985,32.579 6.15956985,32.7673 L6.76692985,50.8929 C6.76692985,51.3637 7.26383985,51.7874 7.81597985,51.7874 L8.53374985,51.7874 C9.08588985,51.7874 9.58280985,51.4108 9.58280985,50.8929 L10.1901998,32.7673 C10.1901998,32.5319 10.4109998,32.3907 10.6870998,32.3907 C10.9630998,32.3907 11.1839998,32.579 11.1839998,32.7673 L11.7913998,50.8929 C11.7913998,51.3637 12.2882998,51.7874 12.8403998,51.7874 L13.5581998,51.7874 C14.1102998,51.7874 14.6071998,51.4108 14.6071998,50.8929 L15.2145998,32.7673 C15.2145998,32.5319 15.4354998,32.3907 15.7114998,32.3907 C15.9875998,32.3907 16.2083998,32.579 16.2083998,32.7673 L16.8157998,50.8929 C16.8157998,51.3637 17.3126998,51.7874 17.8648998,51.7874 L18.0856998,51.7874 C18.6378998,51.7874 19.0795998,51.4108 19.1347998,50.94 C19.3555998,47.8328 20.5702998,31.967 21.2328998,25.9408 C21.8401998,20.4796 19.5764998,19.2084 17.5887998,18.0785 C17.0365998,17.749 16.5396998,17.4665 16.0979998,17.0899 C14.1654998,15.4421 14.1102998,12.6173 14.1102998,12.5702 L14.1102998,0.470795 L14.1102998,0 L13.9998998,0 Z" id="Shape" fill="#FFFFFF" fill-rule="nonzero"></path>
                        <path d="M43.2643998,0.469315 L43.2643998,13.7509 C43.2643998,13.7509 43.2643998,15.5812 44.3492998,17.4116 C45.9765998,20.1805 53.7333998,23.3719 53.7333998,33.6499 C53.7333998,42.5668 48.4717998,47.8232 43.8610998,49.8412 C42.8304998,50.3105 41.6370998,50.5452 40.4979998,50.5452 C39.3046998,50.5452 38.1655998,50.3105 37.1349998,49.8412 C32.5242998,47.8232 27.2626998,42.5668 27.2626998,33.6499 C27.2626998,23.3719 34.9651998,20.2275 36.6467998,17.4116 C37.7315998,15.5343 37.7315998,13.7509 37.7315998,13.7509 L37.7315998,0.469315 L40.4979998,0.469315 L43.2643998,0.469315 Z M43.8068998,0 L43.2643998,0 L40.4979998,0 L37.6773998,0 L37.1349998,0 L37.1349998,0.469315 L37.1349998,13.7509 C37.1349998,13.7509 37.1349998,15.4874 36.1042998,17.2238 C35.7245998,17.8809 34.8566998,18.6318 33.8803998,19.5235 C31.0054998,22.0578 26.6659998,25.9531 26.6659998,33.6499 C26.6659998,42.6138 31.9275998,48.1047 36.8094998,50.2636 C37.8943998,50.7329 39.1419998,51.0145 40.4437998,51.0145 C41.7455998,51.0145 42.9931998,50.7798 44.0780998,50.2636 C49.0141998,48.1047 54.2215998,42.6138 54.2215998,33.6499 C54.2215998,25.9062 49.8820998,22.0578 47.0071998,19.5235 C46.0307998,18.6318 45.1629998,17.8809 44.7832998,17.2238 C43.7525998,15.4874 43.7525998,13.7979 43.7525998,13.7509 L43.7525998,0.469315 L43.7525998,0 L43.8068998,0 Z" id="Shape" fill="#FFFFFF" fill-rule="nonzero"></path>
                        <path d="M71.5114998,0.469747 C71.5114998,0.469747 71.5114998,44.579 71.5114998,46.9747 C71.5114998,49.3704 70.8759998,50.5917 69.0181998,50.5917 C67.1603998,50.5917 64.6181998,43.9683 63.9826998,41.5256 C63.4937998,39.6936 63.0048998,35.0431 62.8092998,32.9292 C62.7603998,32.2246 62.7114998,31.52 62.7114998,30.8154 L62.7114998,2.86545 L62.7114998,0.469747 L71.5114998,0.469747 Z M72.0003998,0 L71.5114998,0 L62.7114998,0 L62.2226998,0 L62.2226998,0.469747 L62.2226998,2.86545 L62.2226998,30.8154 C62.2226998,31.52 62.2715998,32.2716 62.3203998,32.9762 C62.5648998,35.4189 63.0048998,39.7875 63.4937998,41.6196 C63.5426998,41.7135 66.2314998,51.0145 69.0181998,51.0145 C71.6581998,51.0145 72.0003998,48.8067 72.0003998,46.9277 L72.0003998,0.469747 L72.0003998,0 Z" id="Shape" fill="#FFFFFF" fill-rule="nonzero"></path>
                    </g>
                    <g transform="translate(250.000000, 71.024800)">
                        <path d="M58.552,51.3162 L58.552,39.2172 C58.552,39.2172 58.552,36.2042 56.399,34.3682 C54.246,32.5322 50.712,32.5322 51.43,25.8937 C52.092,19.8205 53.307,3.6251 53.528,0.8474 C53.528,0.612 53.749,0.4708 54.025,0.4708 L54.246,0.4708 C54.522,0.4708 54.742,0.6591 54.742,0.8945 L55.35,19.0201 C55.35,19.4909 55.792,19.8676 56.399,19.8676 C56.951,19.8676 57.393,19.4909 57.448,19.0201 L58.055,0.8945 C58.055,0.6591 58.276,0.4708 58.552,0.4708 L59.27,0.4708 C59.546,0.4708 59.767,0.6591 59.767,0.8945 L60.374,19.0201 C60.374,19.4909 60.816,19.8676 61.423,19.8676 C61.975,19.8676 62.417,19.4909 62.472,19.0201 L63.08,0.8945 C63.08,0.6591 63.301,0.4708 63.577,0.4708 L64.294,0.4708 C64.571,0.4708 64.791,0.6591 64.791,0.8945 L65.399,19.0201 C65.399,19.4909 65.84,19.8676 66.448,19.8676 C67,19.8676 67.442,19.4909 67.497,19.0201 L68.104,0.8945 C68.104,0.6591 68.325,0.4708 68.601,0.4708 L68.877,0.4708 C69.153,0.4708 69.374,0.6591 69.374,0.8474 C69.595,3.5781 70.81,19.7734 71.472,25.8937 C72.19,32.5322 68.656,32.5322 66.503,34.3682 C64.35,36.2042 64.35,39.2172 64.35,39.2172 L64.35,51.3162 L58.552,51.3162 Z M58,51.7872 L58.552,51.7872 L64.239,51.7872 L64.791,51.7872 L64.791,51.3162 L64.791,39.2172 C64.791,39.1702 64.847,36.3452 66.779,34.6972 C67.221,34.3212 67.718,34.0382 68.27,33.7092 C70.258,32.5792 72.466,31.3082 71.914,25.8467 C71.251,19.8205 70.037,3.9547 69.816,0.8474 C69.761,0.3767 69.319,0 68.767,0 L68.491,0 C67.939,0 67.442,0.3766 67.442,0.8945 L66.834,19.0201 C66.834,19.2555 66.613,19.3968 66.337,19.3968 C66.061,19.3968 65.84,19.2084 65.84,19.0201 L65.233,0.8945 C65.233,0.4237 64.736,0 64.184,0 L63.466,0 C62.914,0 62.417,0.3766 62.417,0.8945 L61.81,19.0201 C61.81,19.2555 61.589,19.3968 61.313,19.3968 C61.037,19.3968 60.816,19.2084 60.816,19.0201 L60.209,0.8945 C60.209,0.4237 59.712,0 59.16,0 L58.442,0 C57.89,0 57.393,0.3766 57.393,0.8945 L56.785,19.0201 C56.785,19.2555 56.565,19.3968 56.288,19.3968 C56.012,19.3968 55.792,19.2084 55.792,19.0201 L55.184,0.8945 C55.184,0.4237 54.687,0 54.135,0 L53.914,0 C53.362,0 52.92,0.3767 52.865,0.8474 C52.644,3.9547 51.43,19.8205 50.767,25.8467 C50.16,31.3082 52.424,32.5792 54.411,33.7092 C54.963,34.0382 55.46,34.3212 55.902,34.6972 C57.834,36.3452 57.89,39.1702 57.89,39.2172 L57.89,51.3162 L57.89,51.7872 L58,51.7872 Z" id="Shape" fill="#FFFFFF" fill-rule="nonzero"></path>
                        <path d="M28.736,51.3182 L28.736,38.0372 C28.736,38.0372 28.736,36.2062 27.651,34.3762 C26.023,31.6072 18.267,28.4158 18.267,18.1378 C18.267,9.2209 23.528,3.9645 28.139,1.9465 C29.17,1.4772 30.363,1.2425 31.502,1.2425 C32.695,1.2425 33.834,1.4772 34.865,1.9465 C39.476,3.9645 44.737,9.2209 44.737,18.1378 C44.737,28.4158 37.035,31.5602 35.353,34.3762 C34.268,36.2532 34.268,38.0372 34.268,38.0372 L34.268,51.3182 L31.502,51.3182 L28.736,51.3182 Z M28.193,51.7872 L28.736,51.7872 L31.502,51.7872 L34.323,51.7872 L34.865,51.7872 L34.865,51.3182 L34.865,38.0372 C34.865,38.0372 34.865,36.3002 35.896,34.5642 C36.275,33.9072 37.143,33.1562 38.12,32.2642 C40.995,29.7299 45.334,25.8346 45.334,18.1378 C45.334,9.1739 40.072,3.6829 35.191,1.5241 C34.106,1.0548 32.858,0.7732 31.556,0.7732 C30.254,0.7732 29.007,1.0079 27.922,1.5241 C22.986,3.6829 17.778,9.1739 17.778,18.1378 C17.778,25.8815 22.118,29.7299 24.993,32.2642 C25.969,33.1562 26.837,33.9072 27.217,34.5642 C28.247,36.3002 28.247,37.9902 28.247,38.0372 L28.247,51.3182 L28.247,51.7872 L28.193,51.7872 Z" id="Shape" fill="#FFFFFF" fill-rule="nonzero"></path>
                        <path d="M0.488,51.3182 C0.488,51.3182 0.488,7.2087 0.488,4.813 C0.488,2.4173 1.124,1.196 2.982,1.196 C4.84,1.196 7.382,7.8194 8.017,10.2621 C8.506,12.0941 8.995,16.7446 9.191,18.8585 C9.24,19.5631 9.288,20.2677 9.288,20.9723 L9.288,48.9222 L9.288,51.3182 L0.488,51.3182 Z M0,51.7872 L0.488,51.7872 L9.288,51.7872 L9.777,51.7872 L9.777,51.3182 L9.777,48.9222 L9.777,20.9723 C9.777,20.2677 9.728,19.5161 9.68,18.8115 C9.435,16.3688 8.995,12.0002 8.506,10.1681 C8.457,10.0742 5.768,0.7732 2.982,0.7732 C0.342,0.7732 0,2.981 0,4.86 L0,51.3182 L0,51.7872 Z" id="Shape" fill="#FFFFFF" fill-rule="nonzero"></path>
                    </g>
                </g>
            </g>
        </g>
    </g>
</svg>