<svg width="19" height="19" viewBox="0 0 19 19" fill="none" xmlns="http://www.w3.org/2000/svg">
<path d="M8.25794 0.634888C3.75478 0.634888 0.0909424 4.26029 0.0909424 8.71621C0.0909424 13.1724 3.75478 16.7975 8.25794 16.7975C12.7614 16.7975 16.4249 13.1724 16.4249 8.71621C16.4249 4.26029 12.7614 0.634888 8.25794 0.634888ZM8.25794 15.3056C4.58606 15.3056 1.5987 12.3496 1.5987 8.71625C1.5987 5.08289 4.58606 2.12683 8.25794 2.12683C11.9298 2.12683 14.9172 5.08285 14.9172 8.71621C14.9172 12.3496 11.9298 15.3056 8.25794 15.3056Z" fill="#A8A7A7"/>
<path d="M18.4154 17.7096L14.0932 13.4327C13.7986 13.1413 13.3217 13.1413 13.0272 13.4327C12.7326 13.7239 12.7326 14.1963 13.0272 14.4875L17.3494 18.7644C17.4966 18.9101 17.6894 18.983 17.8824 18.983C18.0751 18.983 18.2681 18.9101 18.4154 18.7644C18.7099 18.4732 18.7099 18.0008 18.4154 17.7096Z" fill="#A8A7A7"/>
</svg>
